<?xml version="1.0" encoding="utf-8"?>
<!-- Generator: Adobe Illustrator 25.0.0, SVG Export Plug-In . SVG Version: 6.00 Build 0)  -->
<svg version="1.1" id="Layer_1" xmlns="http://www.w3.org/2000/svg" xmlns:xlink="http://www.w3.org/1999/xlink" x="0px" y="0px"
	 viewBox="0 0 1000 1000" style="enable-background:new 0 0 1000 1000;" xml:space="preserve">
<style type="text/css">
	.st0{opacity:0.2;}
	.st1{fill:none;stroke:#000000;stroke-width:4;stroke-miterlimit:10;}
	.st2{fill:none;stroke:#000000;stroke-width:4;stroke-linejoin:round;stroke-miterlimit:10;}
	.st3{fill:none;stroke:#000000;stroke-width:4;stroke-linecap:round;stroke-miterlimit:10;}
	.st4{fill:none;stroke:#000000;stroke-width:4;stroke-linecap:round;stroke-linejoin:round;stroke-miterlimit:10;}
	.st5{fill:none;stroke:#000000;stroke-width:2;stroke-linecap:round;stroke-linejoin:round;stroke-miterlimit:10;}
	.st6{opacity:0.33;}
	.st7{fill:none;stroke:#000000;stroke-width:1.5;stroke-linecap:round;stroke-linejoin:round;stroke-miterlimit:10;}
	.st8{fill:#004039;}
</style>
<g>
	<g>
		<g>
			<path class="st8" d="M567.8,720.5c-4,0-8-0.6-12-1.8L461,689.1c-4.2-1.3-6.6-5.8-5.3-10c1.3-4.2,5.8-6.6,10-5.3l94.8,29.6
				c12.8,4,26.4-3.2,30.4-15.9c4-12.8-3.2-26.4-15.9-30.4l-79.7-24.9c-1.4-0.5-2.7-1.3-3.7-2.5c-17.2-20.2-35-29.9-53-28.7
				c-32.8,2.1-56.9,38.7-57.2,39.1c-1.5,2.3-4,3.6-6.7,3.6h-7.6c-4.4,0-8-3.6-8-8c0-4.4,3.6-8,8-8h3.5c7.8-10.6,32.8-40.5,67-42.7
				c22.7-1.5,44.5,9.5,64.7,32.6l77.5,24.2c21.2,6.6,33,29.2,26.4,50.4C600.8,709.4,584.9,720.5,567.8,720.5z"/>
		</g>
		<g>
			<path class="st8" d="M526.5,794.3c-0.8,0-1.7,0-2.5,0c-14.5-0.3-26.9-2.9-36.9-7.8l-59.9-29.3c-14.3-7-30.2-10.7-46.1-10.7h-14
				c-4.4,0-8-3.6-8-8c0-4.4,3.6-8,8-8h14c18.3,0,36.7,4.2,53.1,12.3l59.9,29.3c16.2,7.9,41.7,7.3,58.5,3.3
				c9-2.1,73.2-25.9,171.9-63.7c12.4-4.7,18.7-18.3,14.4-30.9c-4.1-11.9-16.5-18.8-28.7-15.9l-108.3,25.2c-4.3,1-8.6-1.7-9.6-6
				c-1-4.3,1.7-8.6,6-9.6l108.3-25.2c20.3-4.7,40.7,6.6,47.5,26.3c7.1,20.8-3.3,43.2-23.8,51C671,749.4,569.7,787.9,556.3,791
				C547.4,793.1,536.6,794.3,526.5,794.3z"/>
		</g>
		<g>
			<path class="st8" d="M364.3,763.4h-37.6v-16h29.6V630.7H325v-16h39.3c4.4,0,8,3.6,8,8v132.7C372.3,759.9,368.7,763.4,364.3,763.4
				z"/>
		</g>
		<g>
			<path class="st8" d="M329.1,781.7h-77.4c-4.4,0-8-3.6-8-8v-164c0-4.4,3.6-8,8-8h77.4c4.4,0,8,3.6,8,8v164
				C337.1,778.1,333.6,781.7,329.1,781.7z M259.7,765.7h61.4v-148h-61.4V765.7z"/>
		</g>
	</g>
	<g>
		<path class="st8" d="M659.7,358.5c-27.6,0-58.5-19.6-62.4-52.4c-4.7-39.3,22.4-56.5,23.5-57.2c3.2-2,7.4-1.4,10,1.3
			c2.6,2.8,4.4,4.4,5.6,5.3c0.8-2,1.7-4.8,2.5-7.1c3.8-11.8,9.6-29.6,27.1-41.3c2.5-1.6,5.6-1.8,8.2-0.4c2.6,1.4,4.2,4.1,4.2,7.1
			c0,14.6,3.9,18.3,12.4,26.5c5.3,5.1,11.8,11.4,19,21.7c10.3,14.9,14.1,32.9,10.2,49.4C712.8,341.9,683.5,358.5,659.7,358.5z
			 M624.5,266.4c-5.6,5.7-13.8,17.8-11.4,37.7c2.9,24,25.9,38.3,46.6,38.3c14.1,0,38.8-9.5,44.7-34.8c2.8-12.1,0-25.4-7.8-36.7
			c-6.2-9-11.9-14.4-16.9-19.2c-6.4-6.1-12.2-11.7-15.2-21.5c-5.4,7.3-8.1,15.8-10.4,23c-3,9.3-5.6,17.2-13.6,19.1
			C634.7,273.6,629.4,270.7,624.5,266.4z"/>
	</g>
	<g>
		<g>
			<path class="st8" d="M643.1,299.5c-6.5,0-11.7-5.3-11.7-11.7s5.3-11.7,11.7-11.7s11.7,5.3,11.7,11.7S649.6,299.5,643.1,299.5z
				 M643.1,284c-2.1,0-3.7,1.7-3.7,3.7s1.7,3.7,3.7,3.7s3.7-1.7,3.7-3.7S645.2,284,643.1,284z"/>
		</g>
		<g>
			<path class="st8" d="M676,323.9c-6.5,0-11.7-5.3-11.7-11.7s5.3-11.7,11.7-11.7s11.7,5.3,11.7,11.7S682.5,323.9,676,323.9z
				 M676,308.4c-2.1,0-3.7,1.7-3.7,3.7s1.7,3.7,3.7,3.7s3.7-1.7,3.7-3.7S678.1,308.4,676,308.4z"/>
		</g>
		<g>
			<path class="st8" d="M643.1,327.4c-0.8,0-1.7-0.3-2.4-0.8c-1.8-1.3-2.1-3.8-0.8-5.6l32.9-43.4c1.3-1.8,3.8-2.1,5.6-0.8
				c1.8,1.3,2.1,3.8,0.8,5.6l-32.9,43.4C645.5,326.9,644.3,327.4,643.1,327.4z"/>
		</g>
	</g>
	<g>
		<path class="st8" d="M526.5,555.4H399.3c-23.7,0-43-19.3-43-43V321.3c0-4.4,3.6-8,8-8h202.9c4.4,0,8,3.6,8,8v40.8c0,4.4-3.6,8-8,8
			s-8-3.6-8-8v-32.8H372.3v183.1c0,14.9,12.1,27,27,27h127.2c4.4,0,8,3.6,8,8C534.5,551.8,531,555.4,526.5,555.4z"/>
	</g>
	<g>
		<path class="st8" d="M694.2,555.4H549.5c-8.6,0-15.6-7-15.6-15.6V387.3c0-4.4,3.6-8,8-8h160c4.4,0,8,3.6,8,8v152.4
			C709.9,548.3,702.9,555.4,694.2,555.4z M549.8,539.4h144v-144h-144V539.4z"/>
	</g>
	<g>
		<path class="st8" d="M524.7,350.4c-4.4,0-8-3.6-8-8v-58c0-28.1-22.8-50.9-50.9-50.9s-50.9,22.8-50.9,50.9v58c0,4.4-3.6,8-8,8
			s-8-3.6-8-8v-58c0-36.9,30-66.9,66.9-66.9s66.9,30,66.9,66.9v58C532.7,346.8,529.1,350.4,524.7,350.4z"/>
	</g>
	<g>
		<path class="st8" d="M621.9,473.6c-23.8,0-43.1-19.3-43.1-43.1v-7.1c0-4.4,3.6-8,8-8s8,3.6,8,8v7.1c0,15,12.2,27.1,27.1,27.1
			c15,0,27.1-12.2,27.1-27.1v-7.1c0-4.4,3.6-8,8-8s8,3.6,8,8v7.1C665,454.3,645.6,473.6,621.9,473.6z"/>
	</g>
	<g>
		<g>
			<path class="st8" d="M465.8,490.7c-33.6,0-60.9-27.3-60.9-60.9s27.3-60.9,60.9-60.9s60.9,27.3,60.9,60.9S499.3,490.7,465.8,490.7
				z M465.8,379c-28,0-50.9,22.8-50.9,50.9s22.8,50.9,50.9,50.9s50.9-22.8,50.9-50.9S493.8,379,465.8,379z"/>
		</g>
		<g>
			<g>
				<path class="st8" d="M450.8,457.6c-2.8,0-5-2.2-5-5v-45.4c0-2.8,2.2-5,5-5s5,2.2,5,5v45.4C455.8,455.3,453.6,457.6,450.8,457.6z
					"/>
			</g>
			<g>
				<path class="st8" d="M458.3,465.7c-2.8,0-5-2.2-5-5v-8.1c0-2.8,2.2-5,5-5s5,2.2,5,5v8.1C463.3,463.5,461,465.7,458.3,465.7z"/>
			</g>
			<g>
				<path class="st8" d="M458.3,412.2c-2.8,0-5-2.2-5-5V399c0-2.8,2.2-5,5-5s5,2.2,5,5v8.1C463.3,410,461,412.2,458.3,412.2z"/>
			</g>
			<g>
				<path class="st8" d="M470.6,465.7c-2.8,0-5-2.2-5-5v-8.1c0-2.8,2.2-5,5-5s5,2.2,5,5v8.1C475.6,463.5,473.4,465.7,470.6,465.7z"
					/>
			</g>
			<g>
				<path class="st8" d="M470.6,412.2c-2.8,0-5-2.2-5-5V399c0-2.8,2.2-5,5-5s5,2.2,5,5v8.1C475.6,410,473.4,412.2,470.6,412.2z"/>
			</g>
			<g>
				<path class="st8" d="M471.8,434.8h-18.6c-2.8,0-5-2.2-5-5s2.2-5,5-5h18.6c3.5,0,6.3-2.8,6.3-6.3c0-3.5-2.8-6.3-6.3-6.3h-28
					c-2.8,0-5-2.2-5-5s2.2-5,5-5h28c9,0,16.3,7.3,16.3,16.3C488.1,427.5,480.8,434.8,471.8,434.8z"/>
			</g>
			<g>
				<path class="st8" d="M476.4,457.4h-32.5c-2.8,0-5-2.2-5-5s2.2-5,5-5h32.5c3.5,0,6.3-2.8,6.3-6.3c0-3.5-2.8-6.3-6.3-6.3h-18.6
					c-2.8,0-5-2.2-5-5s2.2-5,5-5h18.6c9,0,16.3,7.3,16.3,16.3C492.7,450.1,485.4,457.4,476.4,457.4z"/>
			</g>
		</g>
	</g>
</g>
</svg>
