<?xml version="1.0" encoding="utf-8"?>
<!-- Generator: Adobe Illustrator 25.0.0, SVG Export Plug-In . SVG Version: 6.00 Build 0)  -->
<svg version="1.1" id="Layer_1" xmlns="http://www.w3.org/2000/svg" xmlns:xlink="http://www.w3.org/1999/xlink" x="0px" y="0px"
	 viewBox="0 0 1000 1000" style="enable-background:new 0 0 1000 1000;" xml:space="preserve">
<style type="text/css">
	.st0{opacity:0.2;}
	.st1{fill:none;stroke:#000000;stroke-width:4;stroke-miterlimit:10;}
	.st2{fill:none;stroke:#000000;stroke-width:4;stroke-linejoin:round;stroke-miterlimit:10;}
	.st3{fill:none;stroke:#000000;stroke-width:4;stroke-linecap:round;stroke-miterlimit:10;}
	.st4{fill:none;stroke:#000000;stroke-width:4;stroke-linecap:round;stroke-linejoin:round;stroke-miterlimit:10;}
	.st5{fill:none;stroke:#000000;stroke-width:2;stroke-linecap:round;stroke-linejoin:round;stroke-miterlimit:10;}
	.st6{opacity:0.33;}
	.st7{fill:none;stroke:#000000;stroke-width:1.5;stroke-linecap:round;stroke-linejoin:round;stroke-miterlimit:10;}
	.st8{fill:#004039;}
</style>
<g>
	<g>
		<path class="st8" d="M287.1,560.8c-4.4,0-8-3.6-8-8V370.7c0-28.9,23.5-52.3,52.3-52.3h193.4c4.4,0,8,3.6,8,8c0,4.4-3.6,8-8,8
			H331.4c-20,0-36.3,16.3-36.3,36.3v182.1C295.1,557.2,291.5,560.8,287.1,560.8z"/>
	</g>
	<g>
		<path class="st8" d="M593.1,734.7H420.7c-4.4,0-8-3.6-8-8c0-4.4,3.6-8,8-8h172.5c23.9,0,43.3-19.4,43.3-43.3V528.1
			c0-4.4,3.6-8,8-8s8,3.6,8,8v147.4C652.4,708.1,625.8,734.7,593.1,734.7z"/>
	</g>
	<g>
		<path class="st8" d="M462.7,412h-92.5c-4.4,0-8-3.6-8-8s3.6-8,8-8h92.5c4.4,0,8,3.6,8,8S467.1,412,462.7,412z"/>
	</g>
	<g>
		<path class="st8" d="M491.2,459.1h-121c-4.4,0-8-3.6-8-8s3.6-8,8-8h121c4.4,0,8,3.6,8,8S495.6,459.1,491.2,459.1z"/>
	</g>
	<g>
		<path class="st8" d="M517,506.1H370.2c-4.4,0-8-3.6-8-8s3.6-8,8-8H517c4.4,0,8,3.6,8,8S521.4,506.1,517,506.1z"/>
	</g>
	<g>
		<path class="st8" d="M564.1,553.2H397.9c-4.4,0-8-3.6-8-8s3.6-8,8-8h166.2c4.4,0,8,3.6,8,8S568.5,553.2,564.1,553.2z"/>
	</g>
	<g>
		<path class="st8" d="M564.1,600.3H420.7c-4.4,0-8-3.6-8-8s3.6-8,8-8h143.4c4.4,0,8,3.6,8,8S568.5,600.3,564.1,600.3z"/>
	</g>
	<g>
		<path class="st8" d="M564.1,647.4H454c-4.4,0-8-3.6-8-8s3.6-8,8-8h110.1c4.4,0,8,3.6,8,8S568.5,647.4,564.1,647.4z"/>
	</g>
	<g>
		<path class="st8" d="M643.9,534.5c-1.2,0-2.3-0.3-3.4-0.8c-1.3-0.6-31.2-14.8-61.5-41.8c-40.7-36.2-62.3-78.2-62.3-121.3v-70.6
			c0-3.1,1.8-5.9,4.6-7.3l119.1-55.4c2.1-1,4.6-1,6.7,0l119.1,55.4c2.8,1.3,4.6,4.1,4.6,7.3v70.6c0,43.1-21.5,85.1-62.2,121.3
			c-30.3,26.9-60.2,41.2-61.5,41.8C646.3,534.3,645.1,534.5,643.9,534.5z M532.8,305.2v65.5c0,38.9,19,75.5,56.6,109
			c22.9,20.4,46,33.4,54.6,37.8c8.5-4.4,31.7-17.4,54.5-37.8c37.5-33.5,56.6-70.2,56.6-109v-65.5l-111.1-51.7L532.8,305.2z"/>
	</g>
	<g>
		<path class="st8" d="M643.9,455.6c-43.1,0-78.1-35-78.1-78.1s35-78.1,78.1-78.1c43.1,0,78.1,35,78.1,78.1S687,455.6,643.9,455.6z
			 M643.9,315.5c-34.2,0-62.1,27.9-62.1,62.1s27.9,62.1,62.1,62.1s62.1-27.9,62.1-62.1S678.2,315.5,643.9,315.5z"/>
	</g>
	<g>
		<path class="st8" d="M633.3,412c-2.2,0-4.3-0.9-5.9-2.5l-17.1-18.4c-3-3.2-2.8-8.3,0.4-11.3c3.2-3,8.3-2.8,11.3,0.4l11.2,12
			l32.5-35.2c3-3.2,8.1-3.5,11.3-0.5c3.2,3,3.5,8.1,0.5,11.3l-38.3,41.6C637.7,411,635.6,412,633.3,412
			C633.3,412,633.3,412,633.3,412z"/>
	</g>
	<g>
		<path class="st8" d="M364.6,763.3h-102c-15.8,0-28.6-12.8-28.6-28.6v-70.2c0-14.8,12.1-26.9,26.9-26.9h105.5
			c14.8,0,26.9,12.1,26.9,26.9v70.2C393.2,750.5,380.4,763.3,364.6,763.3z M260.9,653.6c-6,0-10.9,4.9-10.9,10.9v70.2
			c0,7,5.7,12.6,12.6,12.6h102c7,0,12.6-5.7,12.6-12.6v-70.2c0-6-4.9-10.9-10.9-10.9H260.9z"/>
	</g>
	<g>
		<path class="st8" d="M313.6,729.6c-6.2,0-11.2-5-11.2-11.2v-11.8c-4.2-3.3-6.8-8.5-6.8-14.1c0-9.9,8.1-18,18-18
			c9.9,0,18,8.1,18,18c0,5.6-2.6,10.7-6.8,14.1v11.8C324.8,724.6,319.7,729.6,313.6,729.6z M313.6,690.6c-1.1,0-2,0.9-2,2
			c0,1,0.7,1.6,1.3,1.9c0.2,0.1,0.4,0.2,0.6,0.2c0.2-0.1,0.4-0.2,0.6-0.2c0.7-0.2,1.4-0.9,1.4-1.9
			C315.6,691.5,314.7,690.6,313.6,690.6z"/>
	</g>
	<g>
		<path class="st8" d="M356.2,653.6h-85.3c-4.4,0-8-3.6-8-8V628c0-27.9,22.7-50.6,50.6-50.6s50.6,22.7,50.6,50.6v17.6
			C364.2,650,360.6,653.6,356.2,653.6z M278.9,637.6h69.3V628c0-19.1-15.5-34.6-34.6-34.6s-34.6,15.5-34.6,34.6V637.6z"/>
	</g>
</g>
</svg>
