<?xml version="1.0" encoding="utf-8"?>
<!-- Generator: Adobe Illustrator 25.0.0, SVG Export Plug-In . SVG Version: 6.00 Build 0)  -->
<svg version="1.1" id="Layer_1" xmlns="http://www.w3.org/2000/svg" xmlns:xlink="http://www.w3.org/1999/xlink" x="0px" y="0px"
	 viewBox="0 0 1000 1000" style="enable-background:new 0 0 1000 1000;" xml:space="preserve">
<style type="text/css">
	.st0{opacity:0.2;}
	.st1{fill:none;stroke:#000000;stroke-width:4;stroke-miterlimit:10;}
	.st2{fill:none;stroke:#000000;stroke-width:4;stroke-linejoin:round;stroke-miterlimit:10;}
	.st3{fill:none;stroke:#000000;stroke-width:4;stroke-linecap:round;stroke-miterlimit:10;}
	.st4{fill:none;stroke:#000000;stroke-width:4;stroke-linecap:round;stroke-linejoin:round;stroke-miterlimit:10;}
	.st5{fill:none;stroke:#000000;stroke-width:2;stroke-linecap:round;stroke-linejoin:round;stroke-miterlimit:10;}
	.st6{opacity:0.33;}
	.st7{fill:none;stroke:#000000;stroke-width:1.5;stroke-linecap:round;stroke-linejoin:round;stroke-miterlimit:10;}
	.st8{fill:#004039;}
</style>
<g>
	<g>
		<path class="st8" d="M697.1,536.9c-4.4,0-8-3.6-8-8V347.1c0-13.2-10.8-24-24-24H334.9c-13.2,0-24,10.8-24,24v178.3
			c0,4.4-3.6,8-8,8s-8-3.6-8-8V347.1c0-22.1,18-40,40-40h330.2c22.1,0,40,18,40,40v181.8C705.1,533.3,701.6,536.9,697.1,536.9z"/>
	</g>
	<g>
		<path class="st8" d="M524.7,318.4c-4.4,0-8-3.6-8-8v-13.8c0-3.8-3.1-6.8-6.8-6.8h-19.7c-3.8,0-6.8,3.1-6.8,6.8v13.8
			c0,4.4-3.6,8-8,8s-8-3.6-8-8v-13.8c0-12.6,10.2-22.8,22.8-22.8h19.7c12.6,0,22.8,10.2,22.8,22.8v13.8
			C532.7,314.8,529.1,318.4,524.7,318.4z"/>
	</g>
	<g>
		<path class="st8" d="M718.9,601.6H281.1c-5.3,0-9.7-4.3-9.7-9.7v-33.1c0-5.3,4.3-9.7,9.7-9.7h437.9c5.3,0,9.7,4.3,9.7,9.7v33.1
			C728.6,597.3,724.3,601.6,718.9,601.6z M287.4,585.6h425.2v-20.4H287.4V585.6z"/>
	</g>
	<g>
		<path class="st8" d="M558.5,650.9h-117c-4.4,0-8-3.6-8-8s3.6-8,8-8h117c4.4,0,8,3.6,8,8S562.9,650.9,558.5,650.9z"/>
	</g>
	<g>
		<path class="st8" d="M566.7,687.3H433.3c-4.4,0-8-3.6-8-8s3.6-8,8-8h133.3c4.4,0,8,3.6,8,8S571.1,687.3,566.7,687.3z"/>
	</g>
	<g>
		<g>
			<path class="st8" d="M424.6,726.3h-41.3c-2.4,0-4.7-1.1-6.2-3c-1.5-1.9-2.1-4.4-1.6-6.7l27.9-124.7c1-4.3,5.2-7,9.6-6.1
				c4.3,1,7,5.2,6.1,9.6l-25.7,114.9h24.9l26.5-118.4c1-4.3,5.2-7,9.6-6.1c4.3,1,7,5.2,6.1,9.6L432.4,720
				C431.6,723.7,428.4,726.3,424.6,726.3z"/>
		</g>
		<g>
			<path class="st8" d="M616.7,726.3h-41.3c-3.7,0-7-2.6-7.8-6.3l-27.9-124.7c-1-4.3,1.8-8.6,6.1-9.6c4.3-1,8.6,1.7,9.6,6.1
				l26.5,118.4h24.9L581,595.3c-1-4.3,1.7-8.6,6.1-9.6c4.3-1,8.6,1.7,9.6,6.1l27.9,124.7c0.5,2.4,0,4.9-1.6,6.7
				C621.4,725.2,619.1,726.3,616.7,726.3z"/>
		</g>
	</g>
	<g>
		<g>
			<path class="st8" d="M531.7,427.1c-2,0-4.1-0.8-5.7-2.3L494.3,393c-3.1-3.1-3.1-8.2,0-11.3c3.1-3.1,8.2-3.1,11.3,0l31.7,31.7
				c3.1,3.1,3.1,8.2,0,11.3C535.8,426.3,533.8,427.1,531.7,427.1z"/>
		</g>
		<g>
			<path class="st8" d="M500,427.1c-2,0-4.1-0.8-5.7-2.3c-3.1-3.1-3.1-8.2,0-11.3l31.7-31.7c3.1-3.1,8.2-3.1,11.3,0
				c3.1,3.1,3.1,8.2,0,11.3l-31.7,31.7C504.1,426.3,502,427.1,500,427.1z"/>
		</g>
	</g>
	<g>
		<g>
			<path class="st8" d="M424.8,529.2c-2,0-4.1-0.8-5.7-2.3l-31.7-31.7c-3.1-3.1-3.1-8.2,0-11.3c3.1-3.1,8.2-3.1,11.3,0l31.7,31.7
				c3.1,3.1,3.1,8.2,0,11.3C428.9,528.4,426.8,529.2,424.8,529.2z"/>
		</g>
		<g>
			<path class="st8" d="M393.1,529.2c-2,0-4.1-0.8-5.7-2.3c-3.1-3.1-3.1-8.2,0-11.3l31.7-31.7c3.1-3.1,8.2-3.1,11.3,0
				c3.1,3.1,3.1,8.2,0,11.3l-31.7,31.7C397.1,528.4,395.1,529.2,393.1,529.2z"/>
		</g>
	</g>
	<g>
		<g>
			<path class="st8" d="M628.4,529.2c-2,0-4.1-0.8-5.7-2.3L591,495.1c-3.1-3.1-3.1-8.2,0-11.3c3.1-3.1,8.2-3.1,11.3,0l31.7,31.7
				c3.1,3.1,3.1,8.2,0,11.3C632.5,528.4,630.5,529.2,628.4,529.2z"/>
		</g>
		<g>
			<path class="st8" d="M596.7,529.2c-2,0-4.1-0.8-5.7-2.3c-3.1-3.1-3.1-8.2,0-11.3l31.7-31.7c3.1-3.1,8.2-3.1,11.3,0
				c3.1,3.1,3.1,8.2,0,11.3l-31.7,31.7C600.8,528.4,598.7,529.2,596.7,529.2z"/>
		</g>
	</g>
	<g>
		<path class="st8" d="M516.7,533.8c-16.4,0-29.8-13.4-29.8-29.8c0-16.4,13.4-29.8,29.8-29.8c16.4,0,29.8,13.4,29.8,29.8
			C546.5,520.4,533.1,533.8,516.7,533.8z M516.7,490.2c-7.6,0-13.8,6.2-13.8,13.8s6.2,13.8,13.8,13.8c7.6,0,13.8-6.2,13.8-13.8
			S524.3,490.2,516.7,490.2z"/>
	</g>
	<g>
		<path class="st8" d="M509.5,466.5c-11.5,0-23.5-1.2-35.7-3.6c-4.3-0.9-7.2-5.1-6.3-9.4c0.9-4.3,5.1-7.2,9.4-6.3
			c38.1,7.5,72.9,2.2,95.5-14.7c17.1-12.8,26.9-31.7,29.2-56.2c0.4-4.4,4.3-7.6,8.7-7.2c4.4,0.4,7.6,4.3,7.2,8.7
			c-2.7,28.8-14.9,52.1-35.5,67.5C563.3,459.3,537.9,466.5,509.5,466.5z"/>
	</g>
	<g>
		<g>
			<path class="st8" d="M393.8,415.7c-0.1,0-0.1,0-0.2,0c-2.2,0-4.2-1-5.7-2.6l-7.6-8.2c-3-3.2-2.8-8.3,0.4-11.3
				c3.2-3,8.3-2.8,11.3,0.4l2,2.1l14.7-14.5c3.2-3.1,8.2-3.1,11.3,0.1c3.1,3.2,3.1,8.2-0.1,11.3l-20.6,20.2
				C397.9,414.9,395.9,415.7,393.8,415.7z"/>
		</g>
		<g>
			<path class="st8" d="M401.3,445.8c-26.6,0-48.2-21.6-48.2-48.2c0-26.6,21.6-48.2,48.2-48.2s48.2,21.6,48.2,48.2
				C449.5,424.2,427.9,445.8,401.3,445.8z M401.3,365.4c-17.8,0-32.2,14.5-32.2,32.2s14.5,32.2,32.2,32.2s32.2-14.5,32.2-32.2
				S419,365.4,401.3,365.4z"/>
		</g>
	</g>
</g>
</svg>
