<?xml version="1.0" encoding="utf-8"?>
<!-- Generator: Adobe Illustrator 25.0.0, SVG Export Plug-In . SVG Version: 6.00 Build 0)  -->
<svg version="1.1" id="Layer_1" xmlns="http://www.w3.org/2000/svg" xmlns:xlink="http://www.w3.org/1999/xlink" x="0px" y="0px"
	 viewBox="0 0 1000 1000" style="enable-background:new 0 0 1000 1000;" xml:space="preserve">
<style type="text/css">
	.st0{opacity:0.2;}
	.st1{fill:none;stroke:#000000;stroke-width:4;stroke-miterlimit:10;}
	.st2{fill:none;stroke:#000000;stroke-width:4;stroke-linejoin:round;stroke-miterlimit:10;}
	.st3{fill:none;stroke:#000000;stroke-width:4;stroke-linecap:round;stroke-miterlimit:10;}
	.st4{fill:none;stroke:#000000;stroke-width:4;stroke-linecap:round;stroke-linejoin:round;stroke-miterlimit:10;}
	.st5{fill:none;stroke:#000000;stroke-width:2;stroke-linecap:round;stroke-linejoin:round;stroke-miterlimit:10;}
	.st6{opacity:0.33;}
	.st7{fill:none;stroke:#000000;stroke-width:1.5;stroke-linecap:round;stroke-linejoin:round;stroke-miterlimit:10;}
	.st8{fill:#004039;}
</style>
<g>
	<path class="st8" d="M590.3,580.1c-0.2-6.5-2.3-8.9-8.9-10.4c-1.5-0.3-3-0.7-4.5-1c-6.1-1.4-12.3-2.8-18.5-3.8
		c-5.6-1-8.7-4.1-9.3-9.5c-0.2-1.4-0.5-2.7-1-3.8c-2.3-5.1,0.4-8.3,2.7-10.3c4.4-3.8,8.8-7.9,13-11.8c2.2-2,4.4-4,6.6-6
		c3.4-3.1,4.1-6.5,2.1-10.7c-4-8.5-8.5-16.5-13.5-23.7c-1.9-2.8-4.3-4.2-7.1-4.2c-1.1,0-2.4,0.2-3.7,0.7c-2.1,0.7-4.3,1.3-6.4,1.9
		c-4.2,1.2-8.2,2.4-11.9,4.1c-3.1,1.5-5.9,2.2-8.5,2.2c-5,0-9.2-2.5-13.1-7.7c-1.8-2.4-3.3-5-2-9.1c1.7-5,3.3-10.1,4.9-15.1
		c1.1-3.4,2.1-6.7,3.2-10.1c1.6-4.8,0.4-8.3-3.9-11.2c-7.1-4.8-14.6-9.1-22.2-12.7c-2.4-1.1-4.1-1.6-5.6-1.6c-2.2,0-4.2,1.2-6.9,4.1
		c-1.3,1.4-2.7,2.8-4,4.2c-4.3,4.5-8.7,9.1-12.5,14c-2,2.6-4.4,3.9-7.1,3.9c-1.8,0-3.5-0.6-5.2-1.1c-1.2-0.4-2.4-0.8-3.5-0.9
		c-5.9-0.5-7.5-5-8.2-8.5c-1.6-8-3.3-16-5-23.6c-1.4-6.6-3.9-8.6-10.4-8.9c-4-0.1-8-0.2-12-0.2c-4,0-8.1,0.1-12.1,0.2
		c-6.4,0.2-8.8,2.3-10.3,9c-0.4,1.7-0.8,3.3-1.2,5c-1,4-2,8.2-2.4,12.2c-0.9,9.9-5.8,15.1-15.2,16.4c-0.9,0.1-1.7,0.2-2.4,0.2
		c-3,0-5.2-1-7.3-3.4c-3.1-3.5-6.3-6.9-9.4-10.3c-2.6-2.9-5.4-5.9-8-8.8c-2.1-2.3-4.2-3.4-6.6-3.4c-1.5,0-3.2,0.5-5,1.3
		c-8.8,4.3-15.8,8.3-22.2,12.7c-5,3.4-5.9,6.1-4.1,12.1c0.5,1.5,1,3.1,1.4,4.6c1.4,4.8,2.9,9.7,4.9,14.3c3.2,7.9,1.8,13.7-4.5,18.8
		c-2.5,2-5,3.8-8.4,3.8c-1.3,0-2.7-0.3-4.2-0.9c-6-2.2-12.2-4.2-18.2-6c-1.5-0.5-3.1-1-4.6-1.4c-1.8-0.5-3.2-0.8-4.5-0.8
		c-2.3,0-4.4,0.8-7.1,4.8c-4.5,6.5-8.7,13.9-12.9,22.7c-2.2,4.5-1.5,8,2,11.2c1.7,1.6,3.4,3.2,5.1,4.8c3.2,3.1,6.5,6.3,10.1,8.9
		c7.3,5.3,9,11.4,5.6,20c-1.3,3.2-3,6.5-7.9,7.4c-4,0.8-8,1.6-11.9,2.5c-3.8,0.8-7.8,1.7-11.7,2.4c-4.9,0.9-7.7,3-9.2,6.7v31.5
		c1.5,3.7,4.3,5.8,9.2,6.7c3.9,0.8,7.9,1.6,11.7,2.5c3.9,0.8,7.9,1.7,11.9,2.5c4.6,0.9,6.5,3.6,8,7.4c3.3,8.6,1.6,14.8-5.6,20
		c-3.6,2.6-6.9,5.8-10.2,8.9c-1.6,1.6-3.3,3.2-5,4.8c-3.6,3.2-4.2,6.6-2,11.1c4.2,8.8,8.4,16.2,12.9,22.7c2.8,4,4.9,4.8,7.2,4.8
		c1.2,0,2.7-0.3,4.5-0.8l0.4-0.1c7.9-2.5,16.2-5,24.1-7.8c1.1-0.4,2.1-0.6,3.1-0.6c2.7,0,4.7,1.4,6.4,2.7c7.7,5.9,9.4,12.6,5.5,21.1
		c-1.9,4-3.2,8.5-4.5,12.9c-0.6,2-1.2,4-1.8,6c-1.5,4.5-0.3,7.9,3.8,10.7c7.1,4.8,14.9,9.3,23.2,13.2c1.7,0.8,3.2,1.2,4.6,1.2
		c2.4,0,4.5-1.1,6.5-3.3c2.2-2.5,4.5-4.9,6.8-7.4c3.5-3.8,7.2-7.7,10.6-11.7c2.1-2.4,4.4-3.5,7.5-3.5c0.8,0,1.6,0.1,2.7,0.2
		c9.3,1.1,13.8,6,14.8,15.9c0.3,3.5,1.1,6.8,2,10.4c0.5,2.2,1.1,4.5,1.5,6.9c0.9,4.8,2.9,7.6,6.7,9.2h31.5c3.7-1.5,5.8-4.4,6.7-9.2
		c0.8-4.4,1.8-8.8,2.8-13.1c0.8-3.6,1.6-7.4,2.4-11.1c0.8-4.2,3.2-6.6,7.2-7.2c2.2-0.3,4.1-0.8,5.6-1.5c1.3-0.6,2.6-0.8,3.7-0.8
		c2.4,0,4.5,1.1,6.5,3.5c3.7,4.2,7.5,8.4,11.2,12.4c2.2,2.4,4.4,4.7,6.5,7.1c2,2.2,4.1,3.3,6.4,3.3c1.5,0,3-0.4,4.8-1.2
		c8.8-4.2,16.2-8.5,22.7-12.9c4.7-3.3,5.6-6,3.9-11.7c-0.5-1.7-1-3.4-1.5-5.2c-1.3-4.4-2.6-9-4.5-13.1c-3.9-8.4-2.3-14.9,5.2-20.7
		c1.9-1.5,4-2.9,6.8-2.9c1,0,2.1,0.2,3.3,0.6c6.7,2.4,13.6,4.5,20.2,6.6l3.8,1.2c1.9,0.6,3.4,0.9,4.7,0.9c2.4,0,4.5-0.9,7.3-5
		c4.3-6.3,8.4-13.4,12.7-22.2c2.3-4.7,1.6-8.2-2.2-11.6c-2.3-2.1-4.6-4.2-6.8-6.3c-4-3.7-8.1-7.6-12.3-11c-5.1-4.1-3.6-8.6-2.4-11.9
		c0.4-1.2,0.8-2.4,0.9-3.4c0.4-4.5,3-7.2,7.8-8.2c7.2-1.4,14.6-3,21.7-4.6l2.4-0.5c6.6-1.5,8.7-3.9,9-10.3
		C590.6,596.2,590.6,588.1,590.3,580.1z M565.8,601.8l-0.3,0.1c-3,0.6-6.1,1.3-9.1,2c-3.8,0.9-7.8,1.8-11.8,2.5
		c-5.2,1-7.8,3.5-8.6,8.4c-1.1,7.2-3.1,14.6-5.9,22c-1.7,4.7-0.7,8.2,3.2,11.6c2.9,2.5,5.7,5.1,8.5,7.6c3.1,2.8,6.3,5.8,9.5,8.5
		c4.8,4.1,3.2,8,1.3,10.9l-0.4,0.6c-1.5,2.3-3.1,4.9-6.7,4.9c-1,0-2.1-0.2-3.3-0.7c-4.6-1.7-9.3-3.2-14-4.6c-2.9-0.9-6-1.8-9-2.8
		c-1.5-0.5-2.9-0.8-4.2-0.8c-2.8,0-5.2,1.2-7.6,3.8c-5.2,5.7-10.4,11-15.6,15.6c-4.1,3.6-5.1,7.3-3.4,12.2c1.1,3.3,2.1,6.6,3.1,9.8
		c1.3,4.3,2.7,8.8,4.3,13.1c2.2,6.1-1.8,8.5-4.5,10l-0.3,0.1c-1.7,1-3.4,2-5.4,2c-1.9,0-3.7-1-5.3-2.9c-2.5-3-5.3-6-7.9-8.9
		c-2.6-2.8-5.3-5.7-7.8-8.7c-2.7-3.2-5.4-4.7-8.4-4.7c-1.4,0-2.9,0.3-4.6,1c-6.1,2.4-12.7,4.1-21.5,5.7c-4.9,0.9-7.3,3.3-8.3,8.1
		c-0.7,3.5-1.5,7.1-2.3,10.5c-1,4.5-2,9.1-2.9,13.6c-1.2,6.9-6.9,6.9-9.3,6.9h-0.1c-3.2,0-7.6-0.7-8.8-6.9
		c-0.7-4.1-1.7-8.2-2.6-12.1c-0.9-3.8-1.8-7.6-2.5-11.5c-1-5.1-3.5-7.7-8.4-8.6c-7.7-1.3-15.1-3.3-22-5.8c-1.5-0.6-2.9-0.8-4.2-0.8
		c-2.8,0-5.1,1.3-7.5,4c-2.1,2.5-4.4,4.9-6.6,7.3c-3,3.2-6,6.5-8.7,9.9c-2,2.6-4.1,3.8-6.6,3.8c-1.9,0-3.9-0.8-6.1-2
		c-6.2-3.3-4.6-8-3.4-11.5c1.2-3.6,2.4-7.3,3.5-10.9c1.1-3.5,2.2-7,3.4-10.5c1.7-4.9,0.7-8.6-3-11.8c-6-5.1-11.5-10.7-16.4-16.6
		c-1.9-2.3-4.1-3.5-6.9-3.8c-2.5,0.8-4.9,1.5-7.4,2.3c-6.1,1.9-12.4,3.8-18.4,6c-1.8,0.7-3.3,1-4.6,1c-4.1,0-6.3-3.1-7.5-5.5
		c-2.5-4.7-1.9-8,2-11.2c3.2-2.7,6.4-5.6,9.4-8.4c2.6-2.4,5.4-4.9,8.2-7.3c3.9-3.4,4.9-7,3.1-11.7c-2.5-6.8-4.5-14.2-5.9-22
		c-0.9-4.9-3.3-7.4-8-8.3c-3.5-0.7-7.1-1.5-10.5-2.2c-4.1-0.9-8.4-1.9-12.6-2.6c-5.7-1.1-8.3-4-8.2-9.6c0.1-5.3,2.5-8.1,8-9.1
		c4.4-0.8,8.9-1.8,13.2-2.8c3.2-0.7,6.5-1.5,9.8-2.1c4.9-1,7.5-3.5,8.2-8.1c1.2-7.3,3.1-14.6,6-22.6c1.6-4.4,0.6-7.9-3.1-11.2
		c-2.9-2.5-5.8-5.1-8.5-7.7c-3.3-3.1-6.8-6.2-10.3-9.2c-4.6-3.9-2.2-7.6-0.7-10.1l0.2-0.4c0.2-0.3,0.3-0.5,0.5-0.8
		c1.1-1.9,2.7-4.6,6.1-4.6c0.9,0,1.8,0.2,2.8,0.5c4.2,1.5,8.6,2.9,12.9,4.2c3.5,1.1,7.1,2.2,10.6,3.4c1.6,0.6,3,0.8,4.4,0.8
		c2.9,0,5.4-1.3,7.9-4.1c4.7-5.3,10-10.5,15.6-15.6c3.9-3.5,4.8-7,3.2-11.8c-1-3.1-2-6.2-2.9-9.2c-1.5-4.7-3-9.6-4.7-14.2
		c-2.1-5.7,1.7-7.9,4.2-9.4c0.2-0.1,0.5-0.3,0.7-0.4c1.6-1,3.3-2,5.4-2c1.9,0,3.6,0.9,5.1,2.8c2.5,3,5.2,5.9,7.9,8.7
		c2.8,3,5.6,6.1,8.3,9.3c2.6,3.1,5.2,4.5,8.1,4.5c1.3,0,2.8-0.3,4.4-0.9c7-2.6,14.4-4.6,22-5.9c4.5-0.8,6.9-3.2,7.9-7.8
		c0.6-2.9,1.3-5.8,1.9-8.7c1.2-5.2,2.4-10.6,3.4-16c1.2-6.6,6.5-6.6,9.1-6.6c3.6,0,7.8,0.8,8.9,6.6c0.8,4.5,1.9,9,2.9,13.4
		c0.8,3.5,1.6,7.1,2.4,10.8c1,5.1,3.6,7.6,8.6,8.4c7.3,1.2,14.6,3.1,21.5,5.7c1.6,0.6,3.1,0.9,4.4,0.9c2.8,0,5.3-1.3,7.7-4.2
		c2.6-3.1,5.4-6.1,8.1-9.1c2.8-3,5.7-6.2,8.4-9.4c1.6-1.9,3.2-2.8,5.1-2.8c1.9,0,3.6,1,5.3,2l0.6,0.4c2.7,1.6,6.4,3.8,4.3,9.5
		c-1.6,4.3-3,8.8-4.3,13.2c-1,3.2-2,6.5-3.1,9.7c-1.7,5.1-0.8,8.8,3.1,12.3c5.5,4.9,10.8,10.2,15.6,15.6c2.5,2.8,4.9,4,7.9,4
		c1.4,0,2.8-0.3,4.4-0.8c3.1-1.1,6.3-2,9.4-3c4.3-1.3,8.8-2.7,13-4.3c1.3-0.5,2.4-0.7,3.5-0.7c3.9,0,5.8,3.1,7,5.2
		c2.1,3.5,3.4,7.3-1.5,11.4c-3.5,2.9-6.9,6-10.2,9.1c-2.5,2.3-5.1,4.7-7.7,7c-3.8,3.3-4.7,6.7-3.1,11.2c2.5,7,4.5,14.6,6.1,23.1
		c0.8,4.1,3.2,6.5,7.6,7.5c2.5,0.5,4.9,1.1,7.4,1.6c4.8,1,9.7,2.1,14.6,3.1l0.2,0c4.2,0.9,9.4,1.9,9.5,9.5
		C575.5,599.8,570.1,600.9,565.8,601.8z"/>
	<path class="st8" d="M710,324.1c-0.1-5.2-2.6-8.4-7.7-9.9c-5.8-1.7-12.1-3.6-19.3-6c-3.5-1.2-5.7-2.9-6.6-5.1
		c-0.9-2.2-0.6-4.9,1.1-8.2c2.7-5.2,5.4-10.5,8.1-15.7l1.4-2.7c2.1-4.1,1.8-7.6-1.1-11.2c-4.5-5.6-9.8-10.8-15.6-15.6
		c-2.1-1.7-4.1-2.5-6.2-2.5c-1.6,0-3.2,0.5-4.9,1.4c-5.7,3-12.1,6.3-18.4,9.5c-2.1,1.1-4,1.6-5.6,1.6c-3.5,0-6.2-2.4-7.7-7
		c-2.3-6.7-4.2-12.8-5.9-18.8c-1.2-4.1-3.3-6.7-6.7-8.2h-26.9c-3.4,1.4-5.6,4-6.7,8.2c-1.7,5.9-3.6,12-5.9,18.8
		c-0.6,1.8-2.4,7.1-7.7,7.1c-1.7,0-3.5-0.5-5.6-1.6c-5.5-2.8-11-5.7-16.4-8.4l-2-1c-1.7-0.9-3.4-1.4-4.9-1.4c-2.1,0-4.2,0.8-6.2,2.5
		c-5.7,4.7-10.9,9.9-15.6,15.6c-2.9,3.5-3.3,7.1-1.2,11.2l2.1,4c2.4,4.7,5,9.6,7.4,14.5c1.7,3.4,2,6,1.1,8.3c-0.9,2.2-3,3.8-6.6,5.1
		c-7.5,2.5-13.6,4.5-19.3,6.1c-5.1,1.4-7.5,4.6-7.7,9.9c-0.2,6.3-0.2,12.8,0,20c0.1,5.4,2.7,8.6,8.1,10.1c5.9,1.6,12.2,3.6,19.3,6
		c3.3,1.1,5.3,2.8,6.2,5c0.9,2.2,0.6,4.9-1,8.1c-2.7,5.4-5.8,11.2-9.5,18.4c-2.2,4.3-1.8,7.9,1.3,11.6c4.4,5.3,9.2,10.1,14.8,14.8
		c2.3,2,4.6,2.9,6.9,2.9c1.6,0,3.4-0.5,5.2-1.5c6.3-3.3,12.1-6.3,18-9.2c2.4-1.2,4.2-1.7,5.9-1.7c4.7,0,6.6,4.3,7.7,7.5
		c1.9,5.6,4,12.2,5.9,18.8c1.5,5.2,4.6,7.7,9.7,7.8c3.4,0.1,6.9,0.2,10.3,0.2c3.4,0,6.9,0,10.3-0.2c5.2-0.1,8.3-2.6,9.7-7.9
		c1.7-6.2,3.7-12.3,5.7-18.2c1.2-3.7,3.2-8,8-8c1.8,0,3.8,0.6,6.4,1.9l5.3,2.7c4.2,2.2,8.4,4.3,12.6,6.5c1.7,0.9,3.3,1.3,4.8,1.3
		c2.1,0,4-0.8,5.9-2.3c5.9-4.7,11.2-10.1,15.9-15.9c2.8-3.4,3.1-6.8,1.2-10.7c-1.9-3.8-3.8-7.5-5.8-11.2c-1.2-2.4-2.5-4.8-3.7-7.2
		c-1.8-3.5-2.2-6.3-1.3-8.5c0.9-2.3,3.1-3.9,6.9-5.2c7.3-2.4,13.5-4.4,19.3-6.1c4.9-1.4,7.3-4.5,7.5-9.4
		C710.2,338.2,710.2,331.5,710,324.1z M689.4,341.7c-2.7,0.8-5.5,1.7-8.2,2.6c-3.1,1-6.2,2-9.4,3c-4.2,1.2-6.3,4.2-8.5,8
		c-5.8,9.8-5.2,18.9,1.7,28.7c0.9,1.2,1.5,2.5,2,3.8c0.5,1,0.9,2,1.5,2.9c2.3,3.4,1.9,6.4-1.1,9.5c-1.1,1.2-2.9,2.7-5.5,2.7
		c-1.4,0-2.8-0.5-4.5-1.4c-2.6-1.5-5.5-3-8.2-4.3c-2.5-1.2-5.1-2.5-7.6-4c-1.6-0.9-3.2-1.4-5.1-1.4c-2.1,0-4.3,0.5-6.5,1.2
		c-11,3-17.1,9.7-19,21c-0.3,1.9-0.9,3.6-1.5,5.3c-0.4,1.1-0.7,2.1-1,3.1c-1,3.6-3.5,5.4-7.5,5.4c-3.8,0-6.3-1.8-7.4-5.5
		c-0.9-3.1-1.9-6.2-2.9-9.2c-0.9-2.9-1.9-5.9-2.8-8.9c-1.2-3.9-4.1-5.9-7.8-8c-4.6-2.7-9-4-13.4-4c-5.1,0-10.1,1.8-15.4,5.6
		c-1.2,0.9-2.5,1.4-3.7,2c-1.1,0.5-2.1,0.9-2.9,1.5c-1.5,1-2.9,1.6-4.4,1.6c-2.5,0-4.3-1.5-5.6-2.9c-3.6-3.6-2.6-6.8-1.1-9.4
		c1.8-3.1,3.4-6.4,5-9.5c1.2-2.4,2.4-4.9,3.7-7.3c1.7-3.2,1.8-6.1,0.3-9.2c-0.1-0.2-0.2-0.4-0.3-0.6c-3.2-7.7-4.8-11.5-7.4-13.9
		c-2.6-2.4-6.6-3.6-14.5-6.2c-0.6-0.2-1.2-0.4-1.8-0.6c-1.8-0.6-3.5-1.2-5.2-1.6c-4.1-1-6.1-3.5-6.1-7.5s1.9-6.5,5.9-7.7
		c3.2-0.9,6.4-2,9.5-3c2.6-0.9,5.3-1.7,8-2.6c3.7-1.1,5.7-3.6,8.1-7.7c5.9-10.2,5.4-19.5-1.7-29.2c-1.6-2.2-2.7-4.7-3.8-7.1
		l-0.4-0.9c-0.9-1.9-0.5-4.4,1.1-6.8c1.3-2,3.7-4.2,6.5-4.2l0.6,0l1.2,0.6c0.6,0.3,1.4,0.7,2.1,1c0.8,0.4,1.5,0.7,2.4,1.1
		c1.9,0.9,3.9,1.8,5.6,3.1c4.3,3.4,8.7,5.1,13.5,5.1c4.7,0,9.9-1.6,16.3-5c2.9-1.6,4.7-3.7,5.8-7c0.7-2.2,1.4-4.3,2.1-6.5
		c1.2-3.8,2.5-7.7,3.6-11.6c1.1-3.7,3.5-5.6,7.2-5.6h0.2c4,0,6.4,1.9,7.6,5.8c1,3.6,2.2,7.2,3.3,10.6c0.8,2.5,1.6,4.9,2.4,7.4
		c1.1,3.4,3.3,5.3,7.5,7.7c4.8,2.8,9.3,4.1,13.8,4.1c5.2,0,10.3-1.9,15.5-5.7c1.2-0.9,2.5-1.5,3.8-2.1c1-0.5,2-0.9,2.8-1.5
		c1.4-1,2.8-1.4,4.1-1.4c2.4,0,4.2,1.6,5.4,2.7c3,3,3.5,5.8,1.4,9.4c-1.7,3-3.4,6.2-4.9,9.4c-1.2,2.5-2.5,5-3.8,7.4
		c-1.8,3.4-1.9,6.4-0.2,9.7c0.1,0.2,0.3,0.5,0.4,0.9c2.5,11.2,9.5,17.5,21.1,19.3c1.7,0.3,3.3,0.8,4.8,1.4c1.1,0.4,2.1,0.7,3.1,1
		c3.9,1,5.9,3.6,5.9,7.8C695,338.2,693.1,340.6,689.4,341.7z"/>
	<path class="st8" d="M762.6,526.2c-1.3-0.4-2.7-0.9-4.1-1.4c-4.2-1.6-6.7-3.7-7.8-6.5c-1.1-2.8-0.7-6,1.1-10
		c7.5-15.9,7.5-15.9-5.3-28.1c-0.5-0.5-1-0.9-1.6-1.4c-0.6-0.6-1.3-1.1-1.9-1.7c-2.7-2.6-5.4-3.9-8.1-3.9c-2.1,0-4.3,0.7-6.6,2.2
		c-2.2,1.4-4.7,2.5-7,3.5l-1,0.4c-1.6,0.7-3.1,1-4.7,1c-4.3,0-7.9-2.6-9.6-6.9c-1.4-3.5-2.5-7-3.7-10.4c-1.6-4.7-4.8-7.1-9.8-7.2
		c-3.1-0.1-6.1-0.1-9-0.1c-2,0-3.9,0-5.8,0.1c-7.4,0.2-9.7,1.8-12.2,8.8c-0.4,1.1-0.7,2.1-1.1,3.2c-0.3,0.9-0.6,1.9-1,2.8
		c-1.7,4.9-4.2,9.8-10,9.8c-2.2,0-4.7-0.7-7.9-2.2c-6.2-3-10.1-4.8-13.1-4.8c-3.6,0-6.5,2.6-13.3,9.6l-0.2,0.2
		c-0.8,0.9-1.7,1.7-2.5,2.6c-6.5,7.2-6.7,8.7-2.5,17.3c0.3,0.7,0.6,1.3,1,2c0.8,1.6,1.6,3.2,2.3,4.8c1.4,3,1.5,6,0.4,8.7
		c-1.1,2.7-3.3,4.7-6.5,6c-3,1.2-6.2,2.3-9.9,3.5c-4.8,1.5-7.2,4.7-7.4,9.6c-0.2,5.6-0.2,11.3,0,17.1c0.2,4.9,2.6,8.1,7.4,9.6
		c2.8,0.9,5.9,2,9.3,3.3c3.6,1.3,6,3.4,7.1,6.1c1.1,2.7,0.9,5.8-0.7,9.2c-0.8,1.9-1.7,3.7-2.6,5.5c-0.8,1.6-1.6,3.2-2.3,4.9
		c-1.2,2.6-1.4,4.4-0.5,5.9c5,8.8,11.4,15.2,19.2,19.2c1,0.5,2,0.8,3,0.8c2.3,0,4.6-1.3,7.1-2.7c1.6-0.9,3.2-1.8,4.9-2.4
		c0.3-0.1,0.7-0.3,1-0.5c0.3-0.1,0.6-0.3,0.9-0.4c1.8-0.8,3.6-1.2,5.4-1.2c4.6,0,8.1,2.8,9.6,7.7c5.1,16.4,5.9,17,19.9,17
		c1.3,0,2.7,0,4.2,0l1.2,0c0.6,0,1.1,0,1.7,0c8.6-0.2,10.6-1.7,13.4-9.6c0.3-0.9,0.6-1.9,0.9-2.8c0.6-1.8,1.2-3.6,1.9-5.4
		c1.7-4.3,5.3-6.9,9.6-6.9c1.6,0,3.1,0.4,4.7,1c3.7,1.6,6.9,3.2,10,4.8c1.7,0.9,3.2,1.3,4.8,1.3c2,0,3.9-0.8,5.9-2.3
		c5.1-4.1,9.8-8.8,13.9-13.9c2.8-3.5,3.1-6.9,1.1-10.7c-0.5-0.9-0.9-1.8-1.3-2.7c-0.5-1.2-1-2.3-1.7-3.3c-3.6-5.6-3.2-9.7-2.3-12.2
		c1.4-3.6,5-6.3,10.2-7.6c6.1-1.5,10.9-3.1,13.5-8.1v-24.4C772,529.2,767.4,527.8,762.6,526.2z M755.6,551.6l-0.2,0.1
		c-0.3,0.1-0.7,0.3-1.2,0.4c-9.9,1.9-15.9,7.5-19.2,18.2c-1.7,5.4-2.8,9.9,0.2,14.7c0.8,1.2,1.4,2.7,2.2,4.4
		c0.1,0.4,0.4,0.8,0.6,1.3c1,1.8,2.6,4.9-0.5,8.1c-1.3,1.4-2.8,2.1-4.4,2.1c-1.6,0-3-0.7-4.2-1.4c-0.5-0.2-0.9-0.5-1.3-0.7
		c-1.6-0.7-3.3-1.5-5.3-2.6c-2.1-1.2-4.1-1.7-6.1-1.7c-1.9,0-3.8,0.5-5.6,1.6l-0.2,0.1c-0.9,0.5-1.9,1.1-3,1.4
		c-9.1,1.8-14.3,7.4-16.5,17.5c-0.4,1.7-1.3,6.1-6.3,6.1c-4.2,0-5.4-3.3-6-5.2l-0.2-0.6l-0.7-2c-0.7-1.8-1.3-3.7-2-5.5l-0.1-0.2
		c-0.4-1.1-0.8-2.2-1.4-3.1c-2.7-4.4-14-9-22.5-9c-2,0-3.7,0.3-4.9,0.8c-2.4,1.1-4.9,2.3-7.7,3.7c-1.1,0.5-2.1,0.8-3.1,0.8
		c-1.6,0-3.1-0.7-4.4-2.1c-2-2.1-2.4-4.4-1.1-7c0.1-0.2,0.2-0.5,0.5-0.8c8.1-10.1,3.7-19.8-0.9-30c-1.6-3.6-4.7-4.8-8.3-6.3
		c-0.8-0.3-1.7-0.7-2.5-1.1c-0.7-0.3-1.6-0.5-2.5-0.7c-2.7-0.6-6.9-1.5-7.1-6.5c-0.3-6,4.7-6.9,7.7-7.4c0.8-0.1,1.6-0.3,2.2-0.5
		c7.2-2.3,10.8-5.9,12.2-11.9c0.5-2.1,1.4-4,2.3-5.9c1.1-2.2,2.2-4.3,2.3-6.6c-0.3-3-1.8-5.8-3.2-8.7c-0.6-1.2-1.3-2.5-1.9-3.8
		l-0.2-0.6c-0.9-1.9-2.2-4.9,0.7-7.9c1.3-1.3,2.8-2,4.3-2c1.6,0,3,0.7,4.2,1.3c0.9,0.5,1.9,0.9,2.9,1.4c1.3,0.6,2.6,1.2,3.9,1.9
		c2.1,1.2,4.1,1.7,6,1.7c1.9,0,3.8-0.5,5.7-1.6l0.4-0.2c0.8-0.5,1.7-1,2.8-1.2c9.1-1.8,14.3-7.4,16.5-17.6c0.4-1.6,1.3-6.1,6.3-6.1
		c4.2,0,5.3,3.3,6,5.2c0.1,0.2,0.2,0.4,0.2,0.7c0.3,0.9,0.6,1.8,0.9,2.6c0.6,1.6,1.2,3.3,1.8,4.9l0.1,0.2c0.4,1.2,0.9,2.2,1.4,3.2
		c2.6,4.4,14.2,9,22.6,9c2,0,3.7-0.3,4.8-0.8c2.2-1,4.6-2.2,7.7-3.8c1-0.5,2-0.8,3-0.8c1.6,0,3.1,0.7,4.5,2.1c2,2,2.3,4.4,1.1,7
		c-0.1,0.2-0.2,0.5-0.5,0.8c-7.7,9.5-4.4,18.4,1,30c1.3,2.8,3.3,4.6,6.4,5.6c2.6,0.9,5.2,1.8,7.7,2.8c0.9,0.3,1.8,0.7,2.6,1
		c2.6,1,4,3.1,3.9,6C759.4,548.9,758.1,550.6,755.6,551.6z"/>
	<path class="st8" d="M449.9,367.5c-1.7,1.8-3.3,3.5-5,5.3c-6.3,6.6-12.7,13.4-19.7,19.3c-1,0.8-1.8,1.2-2.4,1.2
		c-1.1,0-2.2-1.7-3.3-3.3c-1.1-1.6-2.3-3.4-4-4.3c-1.8-1-2.4-1.9-2.5-2.4c0-0.5,0.5-1.2,1.4-1.9c1.5-1.2,3-2.4,4.7-3.9l5.9-4.9
		l-3.6-1.1c-4.8-1.4-8.6-2-12.8-2c-0.4,0-0.8,0-1.2,0c-64.8,1.7-119.5,25.8-162.7,71.7c0,0,0,0,0,0c-0.6,0.7-1.3,1.3-1.9,2
		c-0.1,0.1-0.2,0.2-0.3,0.4c-1.3,0.9-2.9,1.5-4.7,1.5c-4.4,0-8-3.6-8-8c0-1.7,0.5-3.3,1.5-4.6c0.5-0.5,1-1,1.4-1.6
		c17.2-18.4,35.5-33,55.6-44.6c37-21.2,76.6-32,117.9-32c1.2,0,2.4,0,3.6,0c0.5,0,1,0,1.4,0c2.9,0,6.2-0.2,10.2-1.5l3.2-1.1
		l-2.5-2.3c-0.8-0.8-1.6-1.5-2.5-2.3c-1.8-1.7-3.6-3.3-5.5-5c-0.8-0.7-1.3-1.4-1.2-1.9c0-0.3,0.4-1.2,2.8-2.5c1.7-0.9,2.9-2.7,4-4.4
		c1-1.6,2.1-3.2,3.1-3.2c0.6,0,1.4,0.4,2.3,1.2c7.3,6.2,14.1,13.4,20.7,20.3c1.5,1.6,3,3.1,4.4,4.7
		C453.5,359.9,453.4,363.9,449.9,367.5z"/>
	<path class="st8" d="M766.8,256.1l-0.1,0.5c-1.7,10-2.1,10.4-4.7,10.4c-1.9,0-4.7-0.5-8.6-1.3c-1.9-0.4-3.7-0.7-6-1.1l-7.6-1.4
		l1.6,3.5c7,15.5,11.2,28.9,13.2,42.1c6.1,40.4-2,77.7-23.9,111.2c-0.2,0.3-0.4,0.7-0.7,1c-1.5,1.9-3.8,3.1-6.3,3.1
		c-4.4,0-8-3.6-8-8c0-0.8,0.1-1.6,0.3-2.3c0.4-0.6,0.8-1.3,1.3-2l0.3-0.5c0.3-0.4,0.5-0.8,0.8-1.2c25.2-40.1,29.4-83.4,12.3-128.6
		c-0.1-0.2-0.1-0.4-0.2-0.6c-0.4-1.3-1.1-3.4-3.8-4.5l-2.2-1l-0.5,2.4c-0.3,1.7-0.7,3.3-1,4.9c-0.8,3.8-1.6,7.6-2.2,11.5
		c-0.5,2.7-1.2,2.8-2.5,2.8c-0.4,0-1,0-1.5-0.1l-0.4-0.1c-5.7-0.9-9.5-1.5-10.4-2.8c-0.9-1.3-0.2-5.1,0.9-10.9
		c1.9-9.7,3.9-20.1,6.1-30.4c1.6-7.7,4.2-9.1,8.4-9.1c1.4,0,3,0.2,4.9,0.6c3.6,0.7,7.1,1.4,10.7,2.2c8.7,1.8,17.7,3.6,26.5,5.2
		C766.8,252.3,767.3,252.9,766.8,256.1z"/>
	<path class="st8" d="M478.5,521.4c-18.8-18.7-43.9-29-71-29c-26.7,0-51.8,10.4-70.4,29.1c-18.7,18.8-29,43.9-29,70.8
		c0,26.7,10.4,51.8,29.1,70.5s43.9,29,70.6,29h0c26.8,0,51.9-10.3,70.6-29.1c18.8-18.8,29.1-43.8,29.1-70.6
		C507.6,565.3,497.3,540.1,478.5,521.4z M407.9,676.3h-0.2c-23-0.1-44.2-8.8-59.9-24.5c-15.5-15.7-24.1-37-24.3-60
		c-0.2-22.1,8.5-43.2,24.4-59.2c15.9-16,36.8-24.8,58.9-24.8h0.9c23,0.3,44.2,9,59.7,24.6c15.4,15.5,24.3,36.7,24.9,59.7v0.1
		C491,640.2,454.8,676.3,407.9,676.3z"/>
	<path class="st8" d="M601.8,289.7h-0.2c-25.1,0-44.8,19.5-44.8,44.4c0,24.9,19.4,44.5,44.3,44.5h0.1c24.9,0,44.5-19.4,44.6-44.1
		C645.8,309.5,626.5,289.8,601.8,289.7z M601.5,363.3H601c-15.7-0.3-28.6-13.3-28.8-28.9c-0.1-7.4,3-14.9,8.5-20.4
		c5.5-5.6,13.1-8.9,20.6-8.9h0c7.5,0,15,3.2,20.5,8.8c5.5,5.6,8.6,13,8.6,20.5C630.3,349.8,616.8,363.3,601.5,363.3z"/>
	<path class="st8" d="M684.6,510.8h-0.1c-19.8,0-35.3,15.3-35.4,34.8c-0.1,9.8,3.6,18.9,10.2,25.5c6.5,6.6,15.4,10.2,25,10.2h0
		c19.7,0,35.2-15.4,35.3-35.1C719.5,526.4,704.2,510.9,684.6,510.8z M698.1,559.8c-3.9,3.9-8.9,6.1-13.8,6.1H684
		c-10.2-0.2-19.6-9.7-19.6-19.8c0-5,2.2-10.1,6-13.9c3.8-3.9,8.9-6.1,13.8-6.1l0.3,0c10.2,0.2,19.6,9.6,19.7,19.8
		C704.2,550.9,702,556,698.1,559.8z"/>
</g>
</svg>
