<?xml version="1.0" encoding="utf-8"?>
<!-- Generator: Adobe Illustrator 25.0.0, SVG Export Plug-In . SVG Version: 6.00 Build 0)  -->
<svg version="1.1" id="Layer_1" xmlns="http://www.w3.org/2000/svg" xmlns:xlink="http://www.w3.org/1999/xlink" x="0px" y="0px"
	 viewBox="0 0 1000 1000" style="enable-background:new 0 0 1000 1000;" xml:space="preserve">
<style type="text/css">
	.st0{opacity:0.2;}
	.st1{fill:none;stroke:#000000;stroke-width:4;stroke-miterlimit:10;}
	.st2{fill:none;stroke:#000000;stroke-width:4;stroke-linejoin:round;stroke-miterlimit:10;}
	.st3{fill:none;stroke:#000000;stroke-width:4;stroke-linecap:round;stroke-miterlimit:10;}
	.st4{fill:none;stroke:#000000;stroke-width:4;stroke-linecap:round;stroke-linejoin:round;stroke-miterlimit:10;}
	.st5{fill:none;stroke:#000000;stroke-width:2;stroke-linecap:round;stroke-linejoin:round;stroke-miterlimit:10;}
	.st6{opacity:0.33;}
	.st7{fill:none;stroke:#000000;stroke-width:1.5;stroke-linecap:round;stroke-linejoin:round;stroke-miterlimit:10;}
	.st8{fill:#004039;}
</style>
<g>
	<g>
		<g>
			<path class="st8" d="M534.7,683.4c-3.7,0-7.3-0.6-10.9-1.7l-83.6-26.1c-4.2-1.3-6.6-5.8-5.3-10c1.3-4.2,5.8-6.6,10-5.3l83.6,26.1
				c5.2,1.6,10.8,1.1,15.6-1.4c4.8-2.5,8.4-6.8,10-12c1.6-5.2,1.1-10.8-1.4-15.6c-2.5-4.8-6.8-8.4-12-10l-70.3-22
				c-1.4-0.5-2.7-1.3-3.7-2.5c-14.9-17.6-30.4-26-45.9-25c-28.4,1.8-49.6,33.7-49.8,34.1c-1.5,2.3-4,3.6-6.7,3.6h-6.7
				c-4.4,0-8-3.6-8-8c0-4.4,3.6-8,8-8h2.6c7.3-9.8,29.4-35.7,59.5-37.7c20.3-1.3,39.7,8.4,57.7,28.8l68.2,21.3
				c9.3,2.9,16.9,9.2,21.4,17.9c4.5,8.6,5.4,18.5,2.5,27.8c-2.9,9.3-9.2,16.9-17.9,21.4C546.3,682,540.5,683.4,534.7,683.4z"/>
		</g>
		<g>
			<path class="st8" d="M499.1,748.6c-15.4,0-28.2-3.3-36-7.1l-52.9-25.8c-12.5-6.1-26.4-9.3-40.3-9.3h-12.4c-4.4,0-8-3.6-8-8
				s3.6-8,8-8H370c16.3,0,32.7,3.8,47.3,10.9l52.9,25.8c14.1,6.9,36.3,6.3,51,2.9c7.9-1.9,64.5-22.8,151.5-56.1
				c10.5-4,15.8-15.4,12.2-26.1c-3.5-10.1-13.9-15.8-24.3-13.4L565,656.6c-4.3,1-8.6-1.7-9.6-6c-1-4.3,1.7-8.6,6-9.6l95.6-22.2
				c18.4-4.3,36.9,6,43,23.8c6.5,18.8-3,39.1-21.6,46.2c-63.8,24.4-142.3,54.1-153.6,56.8C515.7,747.7,507,748.6,499.1,748.6z"/>
		</g>
		<g>
			<path class="st8" d="M355.1,721.3h-33.2v-16h25.2V604.2h-26.7v-16h34.7c4.4,0,8,3.6,8,8v117.1
				C363.1,717.7,359.6,721.3,355.1,721.3z"/>
		</g>
		<g>
			<path class="st8" d="M306.2,737.3h-32.5c-14.3,0-25.9-11.6-25.9-25.9V602.6c0-14.3,11.6-25.9,25.9-25.9h32.5
				c14.3,0,25.9,11.6,25.9,25.9v108.8C332.1,725.7,320.5,737.3,306.2,737.3z M273.7,592.7c-5.5,0-9.9,4.4-9.9,9.9v108.8
				c0,5.5,4.4,9.9,9.9,9.9h32.5c5.5,0,9.9-4.4,9.9-9.9V602.6c0-5.5-4.4-9.9-9.9-9.9H273.7z"/>
		</g>
	</g>
	<g>
		<g>
			<path class="st8" d="M472.2,552.6c-4.5,0-9-1.7-12.5-5.2L276.9,364.6c-3.3-3.3-5.2-7.8-5.2-12.5s1.8-9.1,5.2-12.5l83-83
				c6.9-6.9,18.1-6.9,25,0l79.8,79.8l-11.3,11.3L373.5,268c-0.6-0.6-1.7-0.6-2.3,0l-83,83c-0.4,0.4-0.5,0.9-0.5,1.2s0.1,0.8,0.5,1.2
				L471,536.1c0.6,0.6,1.7,0.6,2.3,0l83-83c0.4-0.4,0.5-0.9,0.5-1.2c0-0.3-0.1-0.8-0.5-1.2l11.3-11.3c3.3,3.3,5.2,7.8,5.2,12.5
				c0,4.7-1.8,9.1-5.2,12.5l-83,83C481.2,550.9,476.7,552.6,472.2,552.6z"/>
		</g>
		<g>
			<path class="st8" d="M576.7,454.9c-19,0-37.2-9.7-54.1-29l-68.2-21.3c-19.2-6-29.9-26.5-23.9-45.7c6-19.2,26.5-29.9,45.7-23.9
				l83.6,26.1c4.2,1.3,6.6,5.8,5.3,10c-1.3,4.2-5.8,6.6-10,5.3l-83.6-26.1c-10.8-3.4-22.3,2.7-25.6,13.4
				c-3.4,10.8,2.7,22.3,13.4,25.6l70.3,22c1.4,0.5,2.7,1.3,3.7,2.5c14.9,17.6,30.4,26,45.9,25c28.4-1.8,49.6-33.7,49.8-34.1
				c1.5-2.3,4-3.6,6.7-3.6h6.7c4.4,0,8,3.6,8,8c0,4.4-3.6,8-8,8h-2.6c-7.3,9.8-29.4,35.7-59.5,37.7
				C579.1,454.9,577.9,454.9,576.7,454.9z"/>
		</g>
		<g>
			<path class="st8" d="M642.4,326.4H630c-16.3,0-32.7-3.8-47.3-10.9l-52.9-25.8c-15.8-7.7-33.6-8.8-50.2-3.1l-60.4,20.8
				c-4.2,1.4-8.7-0.8-10.2-5c-1.4-4.2,0.8-8.7,5-10.2l60.4-20.8c20.7-7.1,42.8-5.7,62.5,3.9l52.9,25.8c12.5,6.1,26.4,9.3,40.3,9.3
				h12.4c4.4,0,8,3.6,8,8C650.4,322.9,646.8,326.4,642.4,326.4z"/>
		</g>
		<g>
			<path class="st8" d="M679.5,428.6h-34.7c-4.4,0-8-3.6-8-8V303.5c0-4.4,3.6-8,8-8h33.2v16h-25.2v101.1h26.7V428.6z"/>
		</g>
		<g>
			<path class="st8" d="M714.7,440.1h-38.9c-4.4,0-8-3.6-8-8V287.4c0-4.4,3.6-8,8-8h38.9c20.7,0,37.5,16.8,37.5,37.5v85.8
				C752.2,423.3,735.4,440.1,714.7,440.1z M683.9,424.1h30.9c11.8,0,21.5-9.6,21.5-21.5v-85.8c0-11.8-9.6-21.5-21.5-21.5h-30.9
				V424.1z"/>
		</g>
		<g>
			<path class="st8" d="M427.6,453.5c-27,0-48.9-21.9-48.9-48.9s21.9-48.9,48.9-48.9c4.2,0,8.4,0.5,12.4,1.6l-4,15.5
				c-2.7-0.7-5.5-1.1-8.3-1.1c-18.1,0-32.9,14.8-32.9,32.9c0,18.1,14.8,32.9,32.9,32.9s32.9-14.8,32.9-32.9h16
				C476.5,431.5,454.6,453.5,427.6,453.5z"/>
		</g>
		<g>
			<path class="st8" d="M317.5,393.3L306.2,382c8-8,12.5-18.7,12.5-30.1c0-11.4-4.4-22.1-12.5-30.1l11.3-11.3
				c11.1,11.1,17.2,25.8,17.2,41.5C334.7,367.5,328.6,382.2,317.5,393.3z"/>
		</g>
		<g>
			<path class="st8" d="M377.2,316.2c-17.6,0-34-7.8-45.2-21.4l12.4-10.2c8.1,9.9,20.1,15.5,32.9,15.5c10.8,0,21-4,28.9-11.3
				l10.9,11.7C406.1,310.6,392,316.2,377.2,316.2z"/>
		</g>
		<g>
			<path class="st8" d="M502,517.5c-8.1-10.3-20.3-16.3-33.4-16.3c-11.6,0-22.5,4.6-30.5,12.9l-11.5-11.1
				c11.1-11.5,26.1-17.8,42-17.8c18.1,0,34.8,8.2,46,22.4L502,517.5z"/>
		</g>
		<g>
			<path class="st8" d="M528,492.8c-11.1-11.1-17.1-25.7-17.1-41.4c0-13.2,4.6-26.2,12.8-36.5l12.5,10c-6.1,7.6-9.3,16.8-9.3,26.5
				c0,11.4,4.4,22,12.5,30.1L528,492.8z"/>
		</g>
	</g>
</g>
</svg>
