<?xml version="1.0" encoding="utf-8"?>
<!-- Generator: Adobe Illustrator 25.0.0, SVG Export Plug-In . SVG Version: 6.00 Build 0)  -->
<svg version="1.1" id="Layer_1" xmlns="http://www.w3.org/2000/svg" xmlns:xlink="http://www.w3.org/1999/xlink" x="0px" y="0px"
	 viewBox="0 0 1000 1000" style="enable-background:new 0 0 1000 1000;" xml:space="preserve">
<style type="text/css">
	.st0{opacity:0.2;}
	.st1{fill:none;stroke:#000000;stroke-width:4;stroke-miterlimit:10;}
	.st2{fill:none;stroke:#000000;stroke-width:4;stroke-linejoin:round;stroke-miterlimit:10;}
	.st3{fill:none;stroke:#000000;stroke-width:4;stroke-linecap:round;stroke-miterlimit:10;}
	.st4{fill:none;stroke:#000000;stroke-width:4;stroke-linecap:round;stroke-linejoin:round;stroke-miterlimit:10;}
	.st5{fill:none;stroke:#000000;stroke-width:2;stroke-linecap:round;stroke-linejoin:round;stroke-miterlimit:10;}
	.st6{opacity:0.33;}
	.st7{fill:none;stroke:#000000;stroke-width:1.5;stroke-linecap:round;stroke-linejoin:round;stroke-miterlimit:10;}
	.st8{fill:#004039;}
</style>
<g>
	<g>
		<path class="st8" d="M326.6,529.5c-4.4,0-8-3.6-8-8V290.7c0-26.5,21.5-48,48-48h145.2c18,0,35.2,6.8,48.4,19.1l51.8,48.5
			c12.6,11.8,19.8,28.5,19.8,45.7v28.2c0,4.4-3.6,8-8,8s-8-3.6-8-8v-28.2c0-12.9-5.4-25.3-14.8-34.1l-51.8-48.5
			c-10.2-9.5-23.5-14.8-37.4-14.8H366.5c-17.6,0-32,14.3-32,32v230.8C334.6,525.9,331,529.5,326.6,529.5z"/>
	</g>
	<g>
		<path class="st8" d="M617.2,338.3h-80.7c-4.4,0-8-3.6-8-8v-70.4h16v62.4h72.7V338.3z"/>
	</g>
	<g>
		<path class="st8" d="M511.9,362.4H375.1c-4.4,0-8-3.6-8-8s3.6-8,8-8h136.9c4.4,0,8,3.6,8,8S516.4,362.4,511.9,362.4z"/>
	</g>
	<g>
		<path class="st8" d="M405.6,392.3h-30.6c-4.4,0-8-3.6-8-8s3.6-8,8-8h30.6c4.4,0,8,3.6,8,8S410,392.3,405.6,392.3z"/>
	</g>
	<g>
		<path class="st8" d="M430,460.6h-64.8c-4.4,0-8-3.6-8-8s3.6-8,8-8H430c4.4,0,8,3.6,8,8S434.4,460.6,430,460.6z"/>
	</g>
	<g>
		<path class="st8" d="M430,483.1h-64.8c-4.4,0-8-3.6-8-8s3.6-8,8-8H430c4.4,0,8,3.6,8,8S434.4,483.1,430,483.1z"/>
	</g>
	<g>
		<path class="st8" d="M569,362.4h-28.3c-4.4,0-8-3.6-8-8s3.6-8,8-8H569c4.4,0,8,3.6,8,8S573.4,362.4,569,362.4z"/>
	</g>
	<g>
		<path class="st8" d="M569,392.3H429.5c-4.4,0-8-3.6-8-8s3.6-8,8-8H569c4.4,0,8,3.6,8,8S573.4,392.3,569,392.3z"/>
	</g>
	<g>
		<path class="st8" d="M417.6,593.5H300.4c-14,0-25.4-11.4-25.4-25.4c0-14,11.4-25.4,25.4-25.4h117.2c14,0,25.4,11.4,25.4,25.4
			C442.9,582.1,431.5,593.5,417.6,593.5z M300.4,558.8c-5.2,0-9.4,4.2-9.4,9.4c0,5.2,4.2,9.4,9.4,9.4h117.2c5.2,0,9.4-4.2,9.4-9.4
			c0-5.2-4.2-9.4-9.4-9.4H300.4z"/>
	</g>
	<g>
		<path class="st8" d="M417.6,628.2H300.4c-14,0-25.4-11.4-25.4-25.4c0-14,11.4-25.4,25.4-25.4h117.2c14,0,25.4,11.4,25.4,25.4
			C442.9,616.8,431.5,628.2,417.6,628.2z M300.4,593.5c-5.2,0-9.4,4.2-9.4,9.4c0,5.2,4.2,9.4,9.4,9.4h117.2c5.2,0,9.4-4.2,9.4-9.4
			c0-5.2-4.2-9.4-9.4-9.4H300.4z"/>
	</g>
	<g>
		<path class="st8" d="M417.6,662.9H300.4c-14,0-25.4-11.4-25.4-25.4c0-14,11.4-25.4,25.4-25.4h117.2c14,0,25.4,11.4,25.4,25.4
			C442.9,651.5,431.5,662.9,417.6,662.9z M300.4,628.2c-5.2,0-9.4,4.2-9.4,9.4c0,5.2,4.2,9.4,9.4,9.4h117.2c5.2,0,9.4-4.2,9.4-9.4
			c0-5.2-4.2-9.4-9.4-9.4H300.4z"/>
	</g>
	<g>
		<path class="st8" d="M417.6,697.6H300.4c-14,0-25.4-11.4-25.4-25.4c0-14,11.4-25.4,25.4-25.4h117.2c14,0,25.4,11.4,25.4,25.4
			C442.9,686.2,431.5,697.6,417.6,697.6z M300.4,662.9c-5.2,0-9.4,4.2-9.4,9.4c0,5.2,4.2,9.4,9.4,9.4h117.2c5.2,0,9.4-4.2,9.4-9.4
			c0-5.2-4.2-9.4-9.4-9.4H300.4z"/>
	</g>
	<g>
		<path class="st8" d="M417.6,732.3H300.4c-14,0-25.4-11.4-25.4-25.4c0-14,11.4-25.4,25.4-25.4h117.2c14,0,25.4,11.4,25.4,25.4
			C442.9,721,431.5,732.3,417.6,732.3z M300.4,697.6c-5.2,0-9.4,4.2-9.4,9.4c0,5.2,4.2,9.4,9.4,9.4h117.2c5.2,0,9.4-4.2,9.4-9.4
			c0-5.2-4.2-9.4-9.4-9.4H300.4z"/>
	</g>
	<g>
		<path class="st8" d="M680.9,757.3H501.4c-24.3,0-44.1-19.8-44.1-44.1v-263c0-24.3,19.8-44.1,44.1-44.1h179.5
			c24.3,0,44.1,19.8,44.1,44.1v263C724.9,737.5,705.2,757.3,680.9,757.3z M501.4,422.1c-15.5,0-28.1,12.6-28.1,28.1v263
			c0,15.5,12.6,28.1,28.1,28.1h179.5c15.5,0,28.1-12.6,28.1-28.1v-263c0-15.5-12.6-28.1-28.1-28.1H501.4z"/>
	</g>
	<g>
		<path class="st8" d="M678.5,511.6H503.7c-6.2,0-11.2-5-11.2-11.2v-50.6c0-6.2,5-11.2,11.2-11.2h174.8c6.2,0,11.2,5,11.2,11.2v50.6
			C689.7,506.6,684.7,511.6,678.5,511.6z M508.5,495.6h165.1v-40.9H508.5V495.6z"/>
	</g>
	<g>
		<g>
			<path class="st8" d="M540.7,579.8h-33.1c-4.4,0-8-3.6-8-8v-33.1c0-4.4,3.6-8,8-8h33.1c4.4,0,8,3.6,8,8v33.1
				C548.7,576.2,545.1,579.8,540.7,579.8z M515.6,563.8h17.1v-17.1h-17.1V563.8z"/>
		</g>
		<g>
			<path class="st8" d="M607.7,579.8h-33.1c-4.4,0-8-3.6-8-8v-33.1c0-4.4,3.6-8,8-8h33.1c4.4,0,8,3.6,8,8v33.1
				C615.7,576.2,612.1,579.8,607.7,579.8z M582.6,563.8h17.1v-17.1h-17.1V563.8z"/>
		</g>
		<g>
			<path class="st8" d="M674.6,579.8h-33.1c-4.4,0-8-3.6-8-8v-33.1c0-4.4,3.6-8,8-8h33.1c4.4,0,8,3.6,8,8v33.1
				C682.6,576.2,679.1,579.8,674.6,579.8z M649.6,563.8h17.1v-17.1h-17.1V563.8z"/>
		</g>
	</g>
	<g>
		<g>
			<path class="st8" d="M540.7,648.7h-33.1c-4.4,0-8-3.6-8-8v-33.1c0-4.4,3.6-8,8-8h33.1c4.4,0,8,3.6,8,8v33.1
				C548.7,645.1,545.1,648.7,540.7,648.7z M515.6,632.7h17.1v-17.1h-17.1V632.7z"/>
		</g>
		<g>
			<path class="st8" d="M607.7,648.7h-33.1c-4.4,0-8-3.6-8-8v-33.1c0-4.4,3.6-8,8-8h33.1c4.4,0,8,3.6,8,8v33.1
				C615.7,645.1,612.1,648.7,607.7,648.7z M582.6,632.7h17.1v-17.1h-17.1V632.7z"/>
		</g>
		<g>
			<path class="st8" d="M674.6,717.5h-33.1c-4.4,0-8-3.6-8-8v-102c0-4.4,3.6-8,8-8h33.1c4.4,0,8,3.6,8,8v102
				C682.6,714,679.1,717.5,674.6,717.5z M649.6,701.5h17.1v-86h-17.1V701.5z"/>
		</g>
	</g>
	<g>
		<g>
			<path class="st8" d="M540.7,717.5h-33.1c-4.4,0-8-3.6-8-8v-33.1c0-4.4,3.6-8,8-8h33.1c4.4,0,8,3.6,8,8v33.1
				C548.7,714,545.1,717.5,540.7,717.5z M515.6,701.5h17.1v-17.1h-17.1V701.5z"/>
		</g>
		<g>
			<path class="st8" d="M607.7,717.5h-33.1c-4.4,0-8-3.6-8-8v-33.1c0-4.4,3.6-8,8-8h33.1c4.4,0,8,3.6,8,8v33.1
				C615.7,714,612.1,717.5,607.7,717.5z M582.6,701.5h17.1v-17.1h-17.1V701.5z"/>
		</g>
	</g>
	<g>
		<path class="st8" d="M418.6,504.3c-2.7,0-5.3-1.4-6.8-3.7l-28.8-45.8v41.5c0,4.4-3.6,8-8,8s-8-3.6-8-8v-69.2
			c0-3.6,2.4-6.7,5.8-7.7c3.4-1,7.1,0.4,9,3.4l28.8,45.8v-41.5c0-4.4,3.6-8,8-8s8,3.6,8,8v69.2c0,3.6-2.4,6.7-5.8,7.7
			C420.1,504.2,419.4,504.3,418.6,504.3z"/>
	</g>
</g>
</svg>
