<?xml version="1.0" encoding="utf-8"?>
<!-- Generator: Adobe Illustrator 25.0.0, SVG Export Plug-In . SVG Version: 6.00 Build 0)  -->
<svg version="1.1" id="Layer_1" xmlns="http://www.w3.org/2000/svg" xmlns:xlink="http://www.w3.org/1999/xlink" x="0px" y="0px"
	 viewBox="0 0 1000 1000" style="enable-background:new 0 0 1000 1000;" xml:space="preserve">
<style type="text/css">
	.st0{opacity:0.2;}
	.st1{fill:none;stroke:#000000;stroke-width:4;stroke-miterlimit:10;}
	.st2{fill:none;stroke:#000000;stroke-width:4;stroke-linejoin:round;stroke-miterlimit:10;}
	.st3{fill:none;stroke:#000000;stroke-width:4;stroke-linecap:round;stroke-miterlimit:10;}
	.st4{fill:none;stroke:#000000;stroke-width:4;stroke-linecap:round;stroke-linejoin:round;stroke-miterlimit:10;}
	.st5{fill:none;stroke:#000000;stroke-width:2;stroke-linecap:round;stroke-linejoin:round;stroke-miterlimit:10;}
	.st6{opacity:0.33;}
	.st7{fill:none;stroke:#000000;stroke-width:1.5;stroke-linecap:round;stroke-linejoin:round;stroke-miterlimit:10;}
	.st8{fill:#004039;}
</style>
<g>
	<g>
		<g>
			<g>
				<path class="st8" d="M381.1,526.1c-79.6,0-144.4-64.8-144.4-144.4s64.8-144.4,144.4-144.4S525.5,302,525.5,381.6
					S460.7,526.1,381.1,526.1z M381.1,253.2c-70.8,0-128.4,57.6-128.4,128.4s57.6,128.4,128.4,128.4s128.4-57.6,128.4-128.4
					S451.9,253.2,381.1,253.2z"/>
			</g>
			<g>
				<path class="st8" d="M381.1,414.7c-30.5,0-55.3-24.8-55.3-55.3s24.8-55.3,55.3-55.3s55.3,24.8,55.3,55.3
					S411.6,414.7,381.1,414.7z M381.1,320.1c-21.7,0-39.3,17.6-39.3,39.3s17.6,39.3,39.3,39.3s39.3-17.6,39.3-39.3
					S402.8,320.1,381.1,320.1z"/>
			</g>
			<g>
				<path class="st8" d="M381.1,526.1c-39.8,0-78.3-16.7-105.5-45.8c-4.1-4.4-7.6-8.6-10.9-13.1c-2-2.8-2-6.6,0-9.4
					c13.1-17.9,30.4-32.8,50.1-43c20.3-10.5,43.2-16.1,66.3-16.1c45.8,0,89.3,22.1,116.3,59.1c2.1,2.8,2.1,6.6,0,9.4
					c-3.3,4.6-6.9,8.9-10.9,13.1C459.4,509.4,420.9,526.1,381.1,526.1z M281.2,462.5c1.9,2.3,3.8,4.6,6,6.9
					c24.2,25.9,58.4,40.7,93.8,40.7c35.4,0,69.6-14.8,93.8-40.7c2.1-2.3,4.1-4.5,6-6.9c-24.2-30-61.1-47.8-99.8-47.8
					C342.3,414.7,305.5,432.4,281.2,462.5z"/>
			</g>
		</g>
		<g>
			<g>
				<path class="st8" d="M618.9,762.8c-79.6,0-144.4-64.8-144.4-144.4c0-79.6,64.8-144.4,144.4-144.4c79.6,0,144.4,64.8,144.4,144.4
					C763.4,698,698.6,762.8,618.9,762.8z M618.9,489.9c-70.8,0-128.4,57.6-128.4,128.4s57.6,128.4,128.4,128.4
					s128.4-57.6,128.4-128.4S689.8,489.9,618.9,489.9z"/>
			</g>
			<g>
				<path class="st8" d="M618.9,651.4c-30.5,0-55.3-24.8-55.3-55.3s24.8-55.3,55.3-55.3s55.3,24.8,55.3,55.3
					S649.4,651.4,618.9,651.4z M618.9,556.8c-21.7,0-39.3,17.6-39.3,39.3s17.6,39.3,39.3,39.3s39.3-17.6,39.3-39.3
					S640.6,556.8,618.9,556.8z"/>
			</g>
			<g>
				<path class="st8" d="M618.9,762.8c-39.8,0-78.3-16.7-105.5-45.8c-4.1-4.4-7.6-8.6-10.9-13.1c-2-2.8-2-6.6,0-9.4
					c13.1-17.9,30.4-32.8,50.1-43c20.3-10.5,43.2-16.1,66.3-16.1c45.8,0,89.3,22.1,116.3,59.1c2.1,2.8,2.1,6.6,0,9.4
					c-3.3,4.6-6.9,8.9-10.9,13.1C697.2,746.1,658.8,762.8,618.9,762.8z M519.1,699.2c1.9,2.3,3.8,4.6,6,6.9
					c24.2,25.9,58.4,40.7,93.8,40.7s69.6-14.8,93.8-40.7c2.1-2.3,4.1-4.5,6-6.9c-24.2-30-61.1-47.8-99.8-47.8
					C580.2,651.4,543.3,669.2,519.1,699.2z"/>
			</g>
		</g>
	</g>
	<g>
		<path class="st8" d="M462.8,698.7c-0.5,0-1,0-1.5-0.1c-30.1-5.8-58.9-18.7-83.4-37.3c-24.1-18.3-44.2-42.2-58-69.1
			c-2-3.9-0.5-8.8,3.5-10.8c3.9-2,8.8-0.5,10.8,3.5c12.7,24.8,31.2,46.8,53.4,63.6c22.6,17.1,49.1,29,76.8,34.4
			c4.3,0.8,7.2,5,6.3,9.4C469.9,696.1,466.6,698.7,462.8,698.7z"/>
	</g>
	<g>
		<path class="st8" d="M670.4,414.7c-2.8,0-5.6-1.5-7-4.2c-28.1-51.1-79.1-86.6-136.6-94.9c-4.4-0.6-7.4-4.7-6.8-9.1
			c0.6-4.4,4.7-7.4,9.1-6.8c62.4,9,117.9,47.5,148.3,103c2.1,3.9,0.7,8.7-3.2,10.9C673.1,414.4,671.7,414.7,670.4,414.7z"/>
	</g>
	<g>
		<path class="st8" d="M291.9,610.5c-1.8,0-3.6-0.6-5-1.8c-2.3-1.9-3.4-4.8-2.8-7.7l12.8-67.5c0.5-2.6,2.3-4.9,4.8-5.9
			c2.5-1,5.3-0.7,7.6,0.8l56.4,38.2c2.4,1.6,3.8,4.5,3.5,7.4c-0.3,2.9-2.1,5.4-4.8,6.6L295,609.9C294,610.3,292.9,610.5,291.9,610.5
			z M310.3,548.4l-7.8,40.9l42-17.7L310.3,548.4z"/>
	</g>
	<g>
		<path class="st8" d="M692.3,468.2c-1.6,0-3.1-0.5-4.5-1.4l-56.5-38.2c-2.4-1.6-3.8-4.5-3.5-7.4s2.1-5.4,4.8-6.6l69.2-29.4
			c2.7-1.2,5.8-0.7,8.1,1.1c2.3,1.9,3.4,4.8,2.8,7.7l-12.7,67.5c-0.5,2.6-2.3,4.9-4.8,5.9C694.4,468,693.4,468.2,692.3,468.2z
			 M652.5,423.7l34.2,23.1l7.7-40.9L652.5,423.7z"/>
	</g>
</g>
</svg>
