<?xml version="1.0" encoding="utf-8"?>
<!-- Generator: Adobe Illustrator 25.0.0, SVG Export Plug-In . SVG Version: 6.00 Build 0)  -->
<svg version="1.1" id="Layer_1" xmlns="http://www.w3.org/2000/svg" xmlns:xlink="http://www.w3.org/1999/xlink" x="0px" y="0px"
	 viewBox="0 0 1000 1000" style="enable-background:new 0 0 1000 1000;" xml:space="preserve">
<style type="text/css">
	.st0{opacity:0.2;}
	.st1{fill:none;stroke:#000000;stroke-width:4;stroke-miterlimit:10;}
	.st2{fill:none;stroke:#000000;stroke-width:4;stroke-linejoin:round;stroke-miterlimit:10;}
	.st3{fill:none;stroke:#000000;stroke-width:4;stroke-linecap:round;stroke-miterlimit:10;}
	.st4{fill:none;stroke:#000000;stroke-width:4;stroke-linecap:round;stroke-linejoin:round;stroke-miterlimit:10;}
	.st5{fill:none;stroke:#000000;stroke-width:2;stroke-linecap:round;stroke-linejoin:round;stroke-miterlimit:10;}
	.st6{opacity:0.33;}
	.st7{fill:none;stroke:#000000;stroke-width:1.5;stroke-linecap:round;stroke-linejoin:round;stroke-miterlimit:10;}
	.st8{fill:#004039;}
</style>
<g>
	<g>
		<path class="st8" d="M507,645.1c-73.8,0-133.9-60.1-133.9-133.9S433.2,377.3,507,377.3S641,437.3,641,511.2S580.9,645.1,507,645.1
			z M507,393.3c-65,0-117.9,52.9-117.9,117.9S442,629.1,507,629.1c65,0,117.9-52.9,117.9-117.9S572.1,393.3,507,393.3z"/>
	</g>
	<g>
		<path class="st8" d="M507,542.3c-28.5,0-51.7-23.2-51.7-51.7S478.6,439,507,439s51.7,23.2,51.7,51.7S535.5,542.3,507,542.3z
			 M507,455c-19.7,0-35.7,16-35.7,35.7c0,19.7,16,35.7,35.7,35.7s35.7-16,35.7-35.7C542.7,471,526.7,455,507,455z"/>
	</g>
	<g>
		<path class="st8" d="M507.1,645.1c-36.9,0-72.6-15.5-97.8-42.5c-3.8-4-7.1-8-10.1-12.1c-2.1-2.8-2-6.6,0-9.4
			c25.1-34.3,65.4-54.8,107.9-54.8c42.5,0,82.8,20.5,107.9,54.8c2.1,2.8,2.1,6.6,0,9.4c-3.1,4.2-6.4,8.2-10.1,12.1
			C579.7,629.6,544,645.1,507.1,645.1z M415.7,585.8c1.6,2,3.3,3.9,5.2,5.9c22.2,23.8,53.6,37.4,86.1,37.4s63.9-13.6,86.1-37.4
			c1.8-1.9,3.5-3.9,5.2-5.9c-22.2-27.3-55.9-43.5-91.3-43.5C471.7,542.3,437.9,558.5,415.7,585.8z"/>
	</g>
	<g>
		<path class="st8" d="M279.3,542.3c-28.5,0-51.7-23.2-51.7-51.7s23.2-51.7,51.7-51.7c6.3,0,12.4,1.1,18.2,3.3
			c4.1,1.6,6.2,6.2,4.7,10.3c-1.6,4.1-6.2,6.2-10.3,4.7c-4-1.5-8.2-2.3-12.6-2.3c-19.7,0-35.7,16-35.7,35.7
			c0,19.7,16,35.7,35.7,35.7c4.2,0,8.3-0.7,12.2-2.1c4.2-1.5,8.7,0.6,10.3,4.8c1.5,4.2-0.6,8.7-4.8,10.3
			C291.4,541.3,285.4,542.3,279.3,542.3z"/>
	</g>
	<g>
		<path class="st8" d="M279.3,645.1c-36.9,0-72.6-15.5-97.8-42.5c-3.8-4-7.1-8-10.1-12.1c-2.1-2.8-2-6.6,0-9.4
			c25.1-34.3,65.4-54.8,107.9-54.8c5.5,0,11,0.3,16.3,1c4.4,0.5,7.5,4.5,7,8.9c-0.5,4.4-4.5,7.5-8.9,7c-4.7-0.6-9.6-0.9-14.4-0.9
			c-35.4,0-69.1,16.2-91.3,43.5c1.6,2,3.3,3.9,5.2,5.9c22.2,23.8,53.6,37.4,86.1,37.4c14.1,0,27.8-2.5,40.9-7.3
			c4.1-1.5,8.7,0.6,10.3,4.7c1.5,4.1-0.6,8.7-4.7,10.3C310.9,642.3,295.3,645.1,279.3,645.1z"/>
	</g>
	<g>
		<path class="st8" d="M720.7,544.9c-4.4,0-8-3.6-8-8s3.6-8,8-8c19.7,0,35.7-16,35.7-35.7s-16-35.7-35.7-35.7
			c-3.5,0-6.9,0.5-10.2,1.5c-4.2,1.3-8.7-1.2-9.9-5.4c-1.3-4.2,1.2-8.7,5.4-9.9c4.8-1.4,9.7-2.1,14.7-2.1
			c28.5,0,51.7,23.2,51.7,51.7S749.2,544.9,720.7,544.9z"/>
	</g>
	<g>
		<path class="st8" d="M720.7,647.7c-4.4,0-8-3.6-8-8c0-4.4,3.6-8,8-8c32.5,0,63.9-13.6,86.1-37.4c1.8-1.9,3.5-3.9,5.2-5.9
			c-22.2-27.3-55.9-43.5-91.3-43.5c-4.4,0-8-3.6-8-8c0-4.4,3.6-8,8-8c42.5,0,82.8,20.5,107.9,54.8c2.1,2.8,2.1,6.6,0,9.4
			c-3.1,4.2-6.4,8.2-10.1,12.1C793.3,632.2,757.6,647.7,720.7,647.7z"/>
	</g>
	<g>
		<path class="st8" d="M714,773.5c-9.8,0-19.5-3.7-27-11.2l-82-82c-33.2,19.3-71,28.2-109.8,25.9c-95.9-5.7-174.4-82-182.8-177.5
			c-4.9-56.6,14.8-112.5,54-153.1c39.3-40.7,94.3-62.4,150.9-59.4c49.6,2.6,96,24,130.7,60.3c34.7,36.3,54,83.7,54.3,133.4
			c0.3,37.2-9.9,73.1-29.3,104.3l81.1,81.1c7.2,7.2,11.2,16.8,11.2,27c0,10.2-4,19.8-11.2,27l-5.7-5.7l5.7,5.7L741,762.3
			C733.5,769.7,723.8,773.5,714,773.5z M606.2,662.2c2.1,0,4.1,0.8,5.7,2.3l86.4,86.5c8.6,8.6,22.7,8.6,31.3,0l13.2-13.1
			c4.2-4.2,6.5-9.7,6.5-15.7s-2.3-11.5-6.5-15.7l-85.6-85.6c-2.7-2.7-3.1-6.9-1-10.1c20-29.8,30.5-64.7,30.2-100.8
			c-0.3-45.6-18-89.1-49.9-122.4c-31.9-33.4-74.5-53.1-120-55.4c-52-2.7-102.5,17.2-138.6,54.6c-36,37.3-54.1,88.6-49.6,140.6
			C336,615,408.2,685,496.2,690.2c37.6,2.2,74.2-7.1,105.8-26.8C603.3,662.6,604.8,662.2,606.2,662.2z"/>
	</g>
	<g>
		<path class="st8" d="M507,294c-4.4,0-8-3.6-8-8v-51.5c0-4.4,3.6-8,8-8s8,3.6,8,8V286C515,290.5,511.5,294,507,294z"/>
	</g>
	<g>
		<g>
			<path class="st8" d="M616.1,315.5c-1.5,0-3.1-0.4-4.4-1.3c-3.7-2.4-4.7-7.4-2.2-11.1l19.5-29.3c2.4-3.7,7.4-4.7,11.1-2.2
				c3.7,2.4,4.7,7.4,2.2,11.1l-19.5,29.3C621.2,314.2,618.7,315.5,616.1,315.5z"/>
		</g>
		<g>
			<path class="st8" d="M398,315.5c-2.6,0-5.1-1.3-6.7-3.6l-19.5-29.3c-2.4-3.7-1.4-8.6,2.2-11.1c3.7-2.4,8.6-1.4,11.1,2.2
				l19.5,29.3c2.4,3.7,1.4,8.6-2.2,11.1C401,315.1,399.5,315.5,398,315.5z"/>
		</g>
	</g>
</g>
</svg>
