<?xml version="1.0" encoding="utf-8"?>
<!-- Generator: Adobe Illustrator 25.0.0, SVG Export Plug-In . SVG Version: 6.00 Build 0)  -->
<svg version="1.1" id="Layer_1" xmlns="http://www.w3.org/2000/svg" xmlns:xlink="http://www.w3.org/1999/xlink" x="0px" y="0px"
	 viewBox="0 0 1000 1000" style="enable-background:new 0 0 1000 1000;" xml:space="preserve">
<style type="text/css">
	.st0{opacity:0.2;}
	.st1{fill:none;stroke:#000000;stroke-width:4;stroke-miterlimit:10;}
	.st2{fill:none;stroke:#000000;stroke-width:4;stroke-linejoin:round;stroke-miterlimit:10;}
	.st3{fill:none;stroke:#000000;stroke-width:4;stroke-linecap:round;stroke-miterlimit:10;}
	.st4{fill:none;stroke:#000000;stroke-width:4;stroke-linecap:round;stroke-linejoin:round;stroke-miterlimit:10;}
	.st5{fill:none;stroke:#000000;stroke-width:2;stroke-linecap:round;stroke-linejoin:round;stroke-miterlimit:10;}
	.st6{opacity:0.33;}
	.st7{fill:none;stroke:#000000;stroke-width:1.5;stroke-linecap:round;stroke-linejoin:round;stroke-miterlimit:10;}
	.st8{fill:#004039;}
</style>
<g>
	<g>
		<g>
			<path class="st8" d="M616.8,697.2c-1.2,0-2.3-0.3-3.4-0.8c-1.6-0.8-40.2-19.1-79.3-53.9C511,622,492.5,600,479.3,577.1
				c-16.8-28.9-25.3-59.3-25.3-90.3V395c0-3.1,1.8-5.9,4.6-7.3l154.8-72c2.1-1,4.6-1,6.7,0l154.8,72c2.8,1.3,4.6,4.1,4.6,7.3v91.8
				c0,31-8.5,61.4-25.3,90.3c-13.3,22.9-31.7,44.9-54.8,65.5c-39.1,34.8-77.7,53.1-79.3,53.9C619.2,697,618,697.2,616.8,697.2z
				 M470,400.1v86.7c0,28.1,7.8,55.8,23.1,82.3c12.4,21.4,29.8,42.1,51.6,61.5c30.9,27.5,62,44.5,72.1,49.7
				c10.2-5.2,41.5-22.4,72.4-49.9c21.8-19.4,39-40.1,51.4-61.5c15.3-26.4,23-54,23-82.1v-86.7l-146.8-68.3L470,400.1z"/>
		</g>
		<g>
			<path class="st8" d="M616.8,594.7c-54.6,0-99.1-44.4-99.1-99.1s44.4-99.1,99.1-99.1s99.1,44.4,99.1,99.1S671.4,594.7,616.8,594.7
				z M616.8,412.6c-45.8,0-83.1,37.3-83.1,83.1c0,45.8,37.3,83.1,83.1,83.1c45.8,0,83.1-37.3,83.1-83.1
				C699.9,449.8,662.6,412.6,616.8,412.6z"/>
		</g>
		<g>
			<path class="st8" d="M603,538c-2.2,0-4.3-0.9-5.9-2.5l-22.2-23.9c-3-3.2-2.8-8.3,0.4-11.3c3.2-3,8.3-2.8,11.3,0.4l16.3,17.5
				l43.9-47.6c3-3.2,8.1-3.5,11.3-0.5c3.2,3,3.5,8.1,0.5,11.3l-49.8,54C607.4,537,605.3,538,603,538C603,538,603,538,603,538z"/>
		</g>
		<g>
			<g>
				<path class="st8" d="M540.4,770.4c-2.8,0-5.5-1.5-6.9-4l-23.7-41.5l-37.1,13.2c-2.9,1-6.1,0.3-8.3-1.8c-2.2-2.1-3-5.3-2-8.2
					l38.9-120.8c1.4-4.2,5.9-6.5,10.1-5.2c4.2,1.4,6.5,5.9,5.2,10.1l-34,105.4l28.2-10c3.6-1.3,7.7,0.2,9.6,3.6l18.2,31.8l26.8-80
					c1.4-4.2,5.9-6.5,10.1-5c4.2,1.4,6.4,5.9,5,10.1L548,764.9c-1,3-3.7,5.1-6.8,5.4C541,770.4,540.7,770.4,540.4,770.4z"/>
			</g>
			<g>
				<path class="st8" d="M693.2,773.6c-0.3,0-0.5,0-0.8,0c-3.1-0.3-5.8-2.4-6.8-5.4l-32.4-96.9c-1.4-4.2,0.9-8.7,5-10.1
					c4.2-1.4,8.7,0.9,10.1,5l26.8,80l18.2-31.8c1.9-3.4,6-4.9,9.6-3.6l28.2,10l-34-105.4c-1.4-4.2,1-8.7,5.2-10.1
					c4.2-1.4,8.7,1,10.1,5.2l38.9,120.8c0.9,2.9,0.1,6.1-2,8.2c-2.2,2.1-5.4,2.8-8.3,1.8l-37.1-13.2l-23.7,41.5
					C698.7,772,696,773.6,693.2,773.6z"/>
			</g>
		</g>
	</g>
	<g>
		<g>
			<path class="st8" d="M381.8,441.6c-28.5,0-51.8-23.2-51.8-51.8s23.2-51.8,51.8-51.8s51.8,23.2,51.8,51.8S410.3,441.6,381.8,441.6
				z M381.8,354c-19.7,0-35.8,16-35.8,35.8s16,35.8,35.8,35.8s35.8-16,35.8-35.8S401.5,354,381.8,354z"/>
		</g>
		<g>
			<path class="st8" d="M381.8,497.7c-59.5,0-107.9-48.4-107.9-107.9s48.4-107.9,107.9-107.9c23.4,0,45.7,7.4,64.4,21.3
				c18.4,13.7,31.7,32.4,38.5,54.1c1.3,4.2-1,8.7-5.2,10c-4.2,1.3-8.7-1-10-5.2c-12.1-38.4-47.3-64.2-87.7-64.2
				c-50.7,0-91.9,41.2-91.9,91.9c0,50.7,41.2,91.9,91.9,91.9c17.3,0,34.2-4.8,48.8-14c3.7-2.4,8.7-1.2,11,2.5
				c2.4,3.7,1.2,8.7-2.5,11C421.9,492,402.1,497.7,381.8,497.7z"/>
		</g>
		<g>
			<path class="st8" d="M414.7,553.2h-61.8c-4.4,0-8-3.6-8-8v-19.5c-10.4-2.8-20.5-6.8-30-12l-13.5,13.5c-3.1,3.1-8.2,3.1-11.3,0
				l-43.7-43.7c-1.5-1.5-2.3-3.5-2.3-5.7s0.8-4.2,2.3-5.7l12.9-12.9c-5.5-9.6-9.8-19.9-12.9-30.6h-18c-4.4,0-8-3.6-8-8v-61.8
				c0-4.4,3.6-8,8-8h18c3-10.7,7.4-20.9,12.9-30.6l-12.9-12.9c-1.5-1.5-2.3-3.5-2.3-5.7c0-2.1,0.8-4.2,2.3-5.7l43.7-43.7
				c3.1-3.1,8.2-3.1,11.3,0l13.4,13.4c9.6-5.2,19.7-9.2,30-12v-19.5c0-4.4,3.6-8,8-8h61.8c4.4,0,8,3.6,8,8V255
				c10,3,19.5,7.1,28.6,12.3l14.9-14.9c3.1-3.1,8.2-3.1,11.3,0l43.7,43.7c1.5,1.5,2.3,3.5,2.3,5.7c0,2.1-0.8,4.2-2.3,5.7l-15.5,15.5
				c4.1,7.6,7.5,15.5,10.1,23.7c1.3,4.2-1,8.7-5.2,10.1c-4.2,1.3-8.7-1-10.1-5.2c-2.9-9-6.8-17.7-11.7-25.8
				c-1.9-3.1-1.4-7.2,1.2-9.8l14.1-14.1l-32.4-32.3l-13.7,13.7c-2.7,2.7-6.8,3.1-10,1.1c-11-7-22.9-12.1-35.5-15.3
				c-3.6-0.9-6-4.1-6-7.8v-18.7h-45.8v17.7c0,3.8-2.6,7-6.3,7.8c-12.9,2.8-25.4,7.8-37,14.7c-3.1,1.9-7.2,1.4-9.8-1.2l-12.1-12.1
				l-32.4,32.3l11.7,11.7c2.7,2.7,3.1,6.8,1.1,9.9c-7.3,11.5-12.6,24.1-15.8,37.4c-0.9,3.6-4.1,6.2-7.8,6.2h-16.2v45.8h16.2
				c3.7,0,6.9,2.6,7.8,6.2c3.1,13.3,8.4,25.9,15.7,37.4c2,3.2,1.6,7.3-1.1,10l-11.7,11.7l32.4,32.3l12.1-12.1
				c2.6-2.6,6.6-3.1,9.8-1.2c11.5,6.9,23.9,11.9,36.9,14.7c3.7,0.8,6.3,4.1,6.3,7.8v17.8h45.8v-18.7c0-3.7,2.5-6.9,6-7.8
				c7.2-1.8,14.3-4.3,21.1-7.4c4-1.8,8.8-0.1,10.6,3.9c1.8,4,0.1,8.8-3.9,10.6c-5.8,2.6-11.7,4.9-17.8,6.7v20.6
				C422.7,549.6,419.1,553.2,414.7,553.2z"/>
		</g>
	</g>
</g>
</svg>
