<?xml version="1.0" encoding="utf-8"?>
<!-- Generator: Adobe Illustrator 25.0.0, SVG Export Plug-In . SVG Version: 6.00 Build 0)  -->
<svg version="1.1" id="Layer_1" xmlns="http://www.w3.org/2000/svg" xmlns:xlink="http://www.w3.org/1999/xlink" x="0px" y="0px"
	 viewBox="0 0 1000 1000" style="enable-background:new 0 0 1000 1000;" xml:space="preserve">
<style type="text/css">
	.st0{opacity:0.2;}
	.st1{fill:none;stroke:#000000;stroke-width:4;stroke-miterlimit:10;}
	.st2{fill:none;stroke:#000000;stroke-width:4;stroke-linejoin:round;stroke-miterlimit:10;}
	.st3{fill:none;stroke:#000000;stroke-width:4;stroke-linecap:round;stroke-miterlimit:10;}
	.st4{fill:none;stroke:#000000;stroke-width:4;stroke-linecap:round;stroke-linejoin:round;stroke-miterlimit:10;}
	.st5{fill:none;stroke:#000000;stroke-width:2;stroke-linecap:round;stroke-linejoin:round;stroke-miterlimit:10;}
	.st6{opacity:0.33;}
	.st7{fill:none;stroke:#000000;stroke-width:1.5;stroke-linecap:round;stroke-linejoin:round;stroke-miterlimit:10;}
	.st8{fill:#004039;}
</style>
<g>
	<g>
		<path class="st8" d="M373.1,392.6h-118c-4.4,0-8-3.6-8-8V235.5c0-4.4,3.6-8,8-8h71.6c1.9,0,3.8,0.7,5.2,2l46.5,40.3
			c1.8,1.5,2.8,3.7,2.8,6v108.9C381.1,389,377.5,392.6,373.1,392.6z M263.1,376.6h102v-97.2l-41.4-36h-60.6V376.6z"/>
	</g>
	<g>
		<path class="st8" d="M373.1,282.9h-46.5c-4.4,0-8-3.6-8-8v-39.5h16v31.5h38.5V282.9z"/>
	</g>
	<g>
		<path class="st8" d="M332.5,318H289c-4.4,0-8-3.6-8-8s3.6-8,8-8h43.5c4.4,0,8,3.6,8,8S336.9,318,332.5,318z"/>
	</g>
	<g>
		<path class="st8" d="M644.6,697.6h-61.2c-4.4,0-8-3.6-8-8s3.6-8,8-8h61.2c4.4,0,8,3.6,8,8S649.1,697.6,644.6,697.6z"/>
	</g>
	<g>
		<path class="st8" d="M632.2,731.7h-61.2c-4.4,0-8-3.6-8-8s3.6-8,8-8h61.2c4.4,0,8,3.6,8,8S636.6,731.7,632.2,731.7z"/>
	</g>
	<g>
		<path class="st8" d="M332.5,353.2H289c-4.4,0-8-3.6-8-8s3.6-8,8-8h43.5c4.4,0,8,3.6,8,8S336.9,353.2,332.5,353.2z"/>
	</g>
	<g>
		<path class="st8" d="M559,392.6H441c-4.4,0-8-3.6-8-8V235.5c0-4.4,3.6-8,8-8h71.6c1.9,0,3.8,0.7,5.2,2l46.5,40.3
			c1.8,1.5,2.8,3.7,2.8,6v108.9C567,389,563.4,392.6,559,392.6z M449,376.6h102v-97.2l-41.4-36H449V376.6z"/>
	</g>
	<g>
		<path class="st8" d="M559,282.9h-46.5c-4.4,0-8-3.6-8-8v-39.5h16v31.5H559V282.9z"/>
	</g>
	<g>
		<path class="st8" d="M518.4,318h-43.5c-4.4,0-8-3.6-8-8s3.6-8,8-8h43.5c4.4,0,8,3.6,8,8S522.8,318,518.4,318z"/>
	</g>
	<g>
		<path class="st8" d="M518.4,353.2h-43.5c-4.4,0-8-3.6-8-8s3.6-8,8-8h43.5c4.4,0,8,3.6,8,8S522.8,353.2,518.4,353.2z"/>
	</g>
	<g>
		<path class="st8" d="M744.9,392.6h-118c-4.4,0-8-3.6-8-8V235.5c0-4.4,3.6-8,8-8h71.6c1.9,0,3.8,0.7,5.2,2l46.5,40.3
			c1.8,1.5,2.8,3.7,2.8,6v108.9C752.9,389,749.4,392.6,744.9,392.6z M634.9,376.6h102v-97.2l-41.4-36h-60.6V376.6z"/>
	</g>
	<g>
		<path class="st8" d="M744.9,282.9h-46.5c-4.4,0-8-3.6-8-8v-39.5h16v31.5h38.5V282.9z"/>
	</g>
	<g>
		<path class="st8" d="M704.3,318h-43.5c-4.4,0-8-3.6-8-8s3.6-8,8-8h43.5c4.4,0,8,3.6,8,8S708.8,318,704.3,318z"/>
	</g>
	<g>
		<path class="st8" d="M704.3,353.2h-43.5c-4.4,0-8-3.6-8-8s3.6-8,8-8h43.5c4.4,0,8,3.6,8,8S708.8,353.2,704.3,353.2z"/>
	</g>
	<g>
		<path class="st8" d="M653.6,445.6H529.5v-16h124.2c13.4,0,24.3-10.9,24.3-24.3v-20.6h16v20.6C693.9,427.5,675.8,445.6,653.6,445.6
			z"/>
	</g>
	<g>
		<path class="st8" d="M477.6,445.6H343.1c-22.2,0-40.3-18.1-40.3-40.3v-20.6h16v20.6c0,13.4,10.9,24.3,24.3,24.3h134.5V445.6z"/>
	</g>
	<g>
		<rect x="490.3" y="469.1" class="st8" width="16" height="89.9"/>
	</g>
	<g>
		<rect x="490.3" y="384.6" class="st8" width="16" height="31.4"/>
	</g>
	<g>
		<path class="st8" d="M500.9,474.2c-17.3,0-31.4-14.1-31.4-31.4c0-17.3,14.1-31.4,31.4-31.4c17.3,0,31.4,14.1,31.4,31.4
			C532.3,460.1,518.2,474.2,500.9,474.2z M500.9,427.4c-8.5,0-15.4,6.9-15.4,15.4s6.9,15.4,15.4,15.4s15.4-6.9,15.4-15.4
			S509.4,427.4,500.9,427.4z"/>
	</g>
	<g>
		<path class="st8" d="M629.8,772.5H374c-24.2,0-43.9-19.7-43.9-43.9V523.1c0-22.1,18-40.1,40.1-40.1h51.7c14.4,0,28,5.5,38.3,15.5
			l20.5,19.7h146.9c16.3,0,31.1,9,38.5,23.5l4.9,9.5h30.2c9.3,0,17.7,4.3,23.1,11.9c5.4,7.5,6.8,16.9,3.9,25.7l-50,149.1
			C671.3,758.6,651.8,772.5,629.8,772.5z M352.6,746.5c5.1,6.1,12.8,10,21.4,10h255.8c15.1,0,28.5-9.6,33.2-23.9l50-149.1
			c1.3-3.9,0.7-8-1.7-11.3c-2.4-3.3-6.1-5.2-10.2-5.2H433.2c-12,0-22.7,7.7-26.5,19.1L352.6,746.5z M370.2,498.9
			c-13.3,0-24.1,10.8-24.1,24.1v192.7L391.5,581c6-17.9,22.8-30,41.7-30h219.8l-1.1-2.1c-4.7-9.1-14.1-14.8-24.3-14.8H477.6
			c-2.1,0-4.1-0.8-5.5-2.2l-22.8-22c-7.4-7.1-17-11-27.2-11H370.2z"/>
	</g>
</g>
</svg>
