<svg width="354" height="325" viewBox="0 0 354 325" fill="none" xmlns="http://www.w3.org/2000/svg">
<path d="M105 192.005V14.3224C105 7.51421 110.505 2 117.302 2H281.698C288.495 2 294 7.51421 294 14.3224V233.678C294 240.486 288.495 246 281.698 246H161L105 192.005Z" fill="#006156" stroke="black" stroke-width="3" stroke-miterlimit="10"/>
<path d="M105 192H148.697C155.495 192 161 197.515 161 204.325V246L105 192Z" fill="#63BDAF"/>
<path d="M9.02523 152H131.975C136.96 152 141 147.987 141 143.036V47.9635C141 43.0129 136.96 39 131.975 39H9.02523C4.04049 39 0 43.0129 0 47.9635V143.036C0 147.987 4.04049 152 9.02523 152Z" fill="#C8E2DE"/>
<path d="M67 57V136C58.6157 136 50.8449 133.315 44.4837 128.752C38.2758 124.299 33.4045 118.049 30.6219 110.756C28.9275 106.333 28 101.533 28 96.5037C28 95.3129 28.0511 94.1369 28.1607 92.9757C29.9135 72.8059 46.6382 57 67 57Z" fill="#333333"/>
<path d="M102 79.3484L67 95L87.8559 63C93.6868 66.8211 98.4621 72.2006 101.629 78.5692C101.76 78.8239 101.884 79.0862 102 79.3484Z" fill="#006156"/>
<path d="M106 96.9562V97L67 95.2351L102.115 80C104.605 85.127 106 90.8739 106 96.9562Z" fill="#FFEEA7"/>
<path d="M106 96.7794C105.978 118.441 88.5263 136 67 136V95H67.0073L106 96.7794Z" fill="white"/>
<path d="M88 63.208L67.0073 95H67V57C74.5105 57 81.5227 59.1512 87.4871 62.8731C87.6556 62.9773 87.8315 63.0889 88 63.208Z" fill="#FFD525"/>
<mask id="mask0" mask-type="alpha" maskUnits="userSpaceOnUse" x="103" y="0" width="193" height="248">
<path d="M104.662 192.185V14.3341C104.662 7.51944 110.182 2 116.998 2H281.844C288.66 2 294.18 7.51944 294.18 14.3341V233.897C294.18 240.712 288.66 246.231 281.844 246.231H160.815L104.662 192.185Z" fill="#006156" stroke="black" stroke-width="3" stroke-miterlimit="10"/>
</mask>
<g mask="url(#mask0)">
<g opacity="0.44">
<path d="M283.886 298.23L285.037 298.275C270.734 280.505 237.553 266.506 199.944 262.415C189.759 261.318 183.324 257.23 181.313 250.581C179.837 245.682 180.769 239.639 184.055 233.086C187.34 226.561 192.609 220.145 199.315 214.534C201.878 212.389 204.811 209.653 207.924 206.723C222.381 193.152 242.193 174.609 258.725 184.141C267.766 189.371 269.126 198.616 270.552 208.382C272.001 218.293 273.494 228.552 283.799 233.861C286.905 235.454 290.517 236.635 294.635 237.404L294.705 235.649C290.845 234.919 287.489 233.806 284.581 232.307C275.067 227.405 273.684 218.015 272.234 208.103C270.808 198.337 269.337 188.252 259.564 182.619C246.664 175.19 232.337 183.35 219.764 193.74C209.822 201.036 200.608 210.293 193.883 215.643C170.736 234.025 162.672 262.861 192.243 267.669C221.355 272.43 247.623 283.503 263.924 297.406L283.886 298.23Z" fill="#C8E2DE"/>
<path d="M244.544 -16.8378C241.198 -17.4608 237.729 -18.6362 234.062 -19.8771C227.779 -22.0001 221.354 -24.1576 215.029 -23.7757C209.441 -24.5456 203.901 -24.3341 198.727 -21.7455C192.553 -18.6492 190.246 -10.645 192.512 -4.59074C199.621 14.3912 227.687 16.4887 230.722 37.9302L230.721 37.959C232.784 46.9439 227.374 56.899 221.615 63.3251C211.818 74.2003 194.419 82.7847 178.954 84.0703C178.265 84.0141 177.546 83.9854 176.856 83.9291C170.707 83.5114 163.897 83.0672 157.118 83.2582C145.61 82.8575 133.598 83.5027 124.225 88.8053C109.429 97.1476 112.544 120.206 126.284 116.691C126.897 117.205 127.57 117.664 128.278 117.98C131.05 119.272 135.844 119.722 142.741 114.378C150.231 108.598 157.1 106.134 164.344 106.567C170.724 106.965 177.533 109.627 186.417 115.167C194.288 120.091 201.755 127.188 209.637 134.733C221.824 146.34 234.454 158.368 249.11 162.207C258.092 164.553 268.488 164.679 280.04 162.546C285.7 161.504 291.669 159.926 297.862 157.81L297.935 155.969C291.595 158.166 285.509 159.796 279.733 160.863C268.442 162.948 258.276 162.832 249.55 160.554C235.322 156.818 222.858 144.969 210.811 133.484C202.844 125.906 195.322 118.72 187.31 113.705C178.175 107.982 171.109 105.251 164.441 104.842C156.739 104.362 149.519 106.956 141.671 113.011C136.737 116.819 132.369 117.97 129.004 116.396C126.006 114.98 124.1 111.475 123.933 106.974C123.733 101.866 126.073 94.4972 133.236 90.4319C145.468 83.5145 162.823 84.6956 176.76 85.6252C178.197 85.7113 179.604 85.8249 180.984 85.9087C197.653 86.9472 219.134 77.8627 230.892 64.7895C236.8 58.2252 242.339 47.9296 240.201 38.6535L240.203 38.6247C237.979 29.3452 228.704 22.7813 219.707 16.459C213.234 11.8794 207.125 7.57359 203.699 2.42394C200.409 -2.48987 199.226 -7.5214 200.344 -11.7122C201.292 -15.2471 203.766 -18.0585 207.736 -20.0613C215.939 -24.2004 224.894 -21.1643 233.537 -18.2558C237.26 -16.9838 240.786 -15.8062 244.246 -15.1497C254.198 -13.284 266.037 -13.9361 277.567 -16.9631C288.457 -19.8426 298.188 -24.7276 305.348 -30.8675L305.443 -33.2551C298.386 -26.7942 288.384 -21.6319 277.116 -18.6521C265.992 -15.6954 254.124 -15.0444 244.544 -16.8378Z" fill="#C8E2DE"/>
<path d="M160.344 267.58C144.935 258.755 130.342 250.423 125.619 240.986C122.71 235.166 122.301 230.251 124.345 225.954C129.934 214.392 152.858 209.572 173.081 205.306C188.334 202.111 201.497 199.322 206.917 194.178C213.415 188.012 216.132 181.263 215.005 174.131C211.813 153.72 178.515 136.144 168.367 131.245C152.283 123.459 140.528 124.172 126.346 133.749C124.57 134.946 122.698 136.37 120.707 137.875C111.974 144.471 101.074 152.652 90.3301 148.248C81.9104 144.801 73.0024 146.376 64.5923 152.812C57.5778 158.209 51.2117 166.858 47.1666 176.55C45.7013 180.065 44.4028 183.73 43.1377 187.281C38.4638 200.463 34.021 212.906 21.2169 220.434C17.0865 222.863 12.1806 225.232 6.85467 227.296L6.78019 229.165C12.4847 227.001 17.7127 224.501 22.1089 221.91C35.4445 214.057 40.1817 200.733 44.7867 187.836C46.0506 184.314 47.3192 180.677 48.7833 177.191C52.7031 167.753 58.8576 159.354 65.6627 154.151C71.1608 149.933 79.798 145.754 89.6918 149.807C101.343 154.593 112.659 146.083 121.749 139.213C123.709 137.736 125.58 136.341 127.328 135.143C140.889 125.973 152.181 125.299 167.615 132.771C173.381 135.565 184.557 141.427 194.672 149.321C205.792 158.033 212.054 166.465 213.296 174.351C214.303 180.902 211.778 187.14 205.729 192.892C200.668 197.704 187.071 200.562 172.717 203.592C152.088 207.928 128.727 212.846 122.791 225.171C120.499 229.92 120.94 235.47 124.062 241.731C129.026 251.638 143.816 260.093 159.479 269.043C173.451 277.033 187.761 285.238 195.337 294.673L197.581 294.763C190.063 284.581 175.049 275.973 160.344 267.58Z" fill="#C8E2DE"/>
<path d="M127.384 276.436C118.219 271.433 109.563 266.68 105.566 260.7C99.312 251.347 97.1378 240.83 99.4569 231.069C101.813 221.108 108.698 212.45 118.808 206.745C122.875 204.458 130.707 202.407 139.034 200.232C155.687 195.882 174.553 190.958 177.419 181.218C178.353 178.029 178.094 175.108 176.641 172.544C172.765 165.676 161.16 162.65 151.863 160.234C147.843 159.181 144.363 158.293 142.243 157.258C130.767 151.701 122.362 152.231 112.236 159.059C110.726 160.094 109.239 161.245 107.634 162.477C103.502 165.684 99.2485 169.029 94.462 169.847C92.1124 170.243 89.9146 169.724 87.5741 169.169C84.7768 168.51 81.8656 167.818 78.827 168.879C66.7345 173.007 61.7009 189.431 57.6599 202.638C56.534 206.31 55.4737 209.783 54.3834 212.563C47.2664 230.662 37.55 255.427 18.4318 266.68C14.7145 268.866 10.1365 270.96 5.17062 272.663L5.09729 274.504C10.4405 272.729 15.3695 270.505 19.3238 268.156C38.9436 256.606 48.8176 231.501 56.0013 213.175C57.1238 210.31 58.1853 206.808 59.341 203.109C63.2809 190.272 68.1523 174.302 79.4267 170.458C82.0258 169.582 84.5378 170.172 87.2212 170.798C89.6192 171.354 92.1311 171.944 94.7994 171.503C100.021 170.616 104.451 167.162 108.733 163.818C110.28 162.611 111.766 161.461 113.217 160.481C122.751 154.032 130.664 153.57 141.519 158.814C143.78 159.912 147.345 160.832 151.45 161.917C160.461 164.264 171.639 167.187 175.166 173.407C176.404 175.589 176.598 177.959 175.795 180.75C173.196 189.578 154.039 194.578 138.61 198.573C129.817 200.874 122.219 202.847 117.974 205.242C107.45 211.219 100.263 220.239 97.8011 230.686C95.3762 240.933 97.6183 251.913 104.144 261.681C108.386 268.016 117.211 272.862 126.574 277.96C134.836 282.467 143.267 287.095 148.569 292.867L150.985 292.963C145.571 286.38 136.379 281.347 127.384 276.436Z" fill="#C8E2DE"/>
<path d="M96.9392 278.308L96.2544 277.416C87.7447 266.1 78.1128 253.298 83.3952 238.584C84.6925 234.948 86.763 231.429 88.7416 228.05C93.1012 220.589 97.615 212.874 94.4847 203.213C92.5863 197.346 89.6266 195.701 87.4519 195.327C83.9596 194.755 80.0639 197.078 76.5311 201.864C71.1716 209.113 68.5439 217.94 66.0139 226.483C64.7835 230.611 63.5185 234.883 61.9785 238.826C55.7275 254.712 47.4856 275.733 32.61 288.25L35.1127 288.349C49.3979 275.463 57.4443 255.011 63.5665 239.466C65.1387 235.437 66.4336 231.138 67.6652 226.98C70.1606 218.58 72.7527 209.925 77.9305 202.899C81.0354 198.73 84.4052 196.588 87.1818 197.045C89.5866 197.428 91.5397 199.754 92.8498 203.753C95.7498 212.685 91.6087 219.723 87.249 227.184C85.2383 230.648 83.1367 234.223 81.7762 238.001L81.775 238.03C76.1982 253.625 86.1316 266.813 94.8865 278.485L95.5713 279.377C95.7899 279.674 96.1191 280.09 96.5023 280.595C99.4325 284.429 101.973 287.93 104.094 291.097L106.251 291.183C103.589 287.13 100.582 283.063 97.8703 279.526C97.4582 279.02 97.1579 278.604 96.9392 278.308Z" fill="#C8E2DE"/>
<path d="M183.806 10.8C175.99 7.29638 168.825 5.9101 163.634 6.8654C156.244 8.22722 151.988 13.702 147.894 19.014C146.408 20.9067 144.86 22.9013 143.211 24.6311C138.894 29.1491 133.845 31.3869 128.49 33.7672C122.912 36.2491 117.15 38.7921 112.344 44.1242L112.263 44.2463C110.348 47.1365 109.024 49.8436 108.291 52.2862C103.484 62.2189 102.829 73.8629 112.681 78.1406C125.097 83.5183 139.921 66.7485 150.976 62.7006C165.981 57.1881 180.228 66.2306 195.537 62.53C206.49 59.8867 213.985 48.2447 213.436 43.3385C213.376 42.7482 213.254 42.1374 213.111 41.5471C213.111 41.1806 213.091 40.8346 213.05 40.4681C212.502 35.4398 209.348 29.9222 203.915 24.4854C198.603 19.1301 191.276 14.161 183.806 10.8ZM129.223 35.3552C134.496 33.0157 139.932 30.5947 144.493 25.8325C146.203 24.0416 147.771 22.0267 149.278 20.0729C153.372 14.8016 157.261 9.81533 163.959 8.57546C173.853 6.74615 191.622 14.5885 202.713 25.6861C207.862 30.8379 210.833 36.0094 211.34 40.6305C211.889 45.5774 207.328 49.2403 197.861 51.5379C191.306 53.1239 184.486 53.6716 177.87 54.1787C169.055 54.8887 159.956 55.5986 151.283 58.7718C148.127 59.9312 145.032 61.5589 142.06 63.1459C134.384 67.2355 127.116 71.0808 118.567 67.3735C115.9 66.2124 113.763 64.8479 112.278 63.3614C108.004 59.0853 108.454 53.1412 113.667 45.2035C118.249 40.2174 123.827 37.7354 129.223 35.3552Z" fill="#C8E2DE"/>
<path d="M248.466 218.795C247.737 218.305 246.916 217.927 246.035 217.632C240.461 215.797 233.749 217.2 227.645 221.452C220.532 226.412 215.729 234.173 215.448 241.221C215.418 241.969 215.445 242.748 215.502 243.47C215.81 246.594 217.322 249.132 220.012 251.054C225.392 254.87 234.795 255.331 240.933 253.847C244.483 252.98 247.794 250.144 250.24 245.862C252.47 241.975 253.844 237.132 254.026 232.558C254.248 226.257 252.23 221.221 248.466 218.795ZM240.539 252.16C235.622 253.376 226.315 253.38 221.02 249.625C218.75 248.008 217.481 245.883 217.239 243.28C217.179 242.615 217.147 241.951 217.175 241.261C217.435 234.731 221.931 227.476 228.626 222.845C234.286 218.922 240.446 217.611 245.509 219.253C246.249 219.485 246.927 219.829 247.545 220.228C250.803 222.345 252.527 226.793 252.3 232.489C251.946 240.658 247.376 250.502 240.539 252.16Z" fill="#C8E2DE"/>
<path d="M254.759 122.535C255.59 122.819 256.481 122.973 257.408 123.029C263.267 123.359 269.387 120.266 274.183 114.579C279.769 107.947 282.4 99.2077 280.847 92.3275C280.683 91.5974 280.455 90.8518 280.213 90.1687C279.107 87.2309 276.989 85.1708 273.894 84.0101C267.71 81.7168 258.508 83.7052 252.963 86.7276C249.758 88.4838 247.294 92.0799 246.039 96.8491C244.892 101.181 244.818 106.215 245.826 110.68C247.242 116.824 250.495 121.166 254.759 122.535ZM253.78 88.255C258.215 85.8077 267.203 83.3953 273.29 85.6515C275.901 86.6264 277.677 88.3504 278.585 90.8018C278.815 91.4287 279.017 92.0619 279.169 92.7359C280.608 99.1106 278.143 107.281 272.874 113.488C268.423 118.742 262.812 121.603 257.496 121.327C256.722 121.295 255.978 121.138 255.278 120.912C251.583 119.71 248.766 115.86 247.511 110.3C245.739 102.318 247.605 91.6261 253.78 88.255Z" fill="#C8E2DE"/>
<path d="M210.953 95.3298C209.703 95.9863 208.247 97.3624 208.43 100.136C208.598 102.732 210.296 106.622 212.059 108.459C214.595 111.112 219.89 110.722 223.513 108.818C226.095 107.461 227.655 105.473 227.738 103.356C227.762 102.945 227.721 102.515 227.628 102.085C227.162 99.8327 225.046 97.6763 221.859 96.1623C218.577 94.6186 213.93 93.7653 210.953 95.3298ZM226.267 102.376C226.325 102.69 226.353 102.995 226.348 103.29C226.265 104.901 225.002 106.442 222.857 107.569C218.859 109.669 214.682 109.154 213.06 107.482C211.545 105.913 209.988 102.293 209.837 100.034C209.731 98.4162 210.318 97.2575 211.609 96.5792C213.795 95.4304 217.759 95.7925 221.285 97.4469C224.016 98.7492 225.883 100.584 226.267 102.376Z" fill="#C8E2DE"/>
<path d="M244.086 21.8712C243.783 26.5843 245.581 31.3522 249.553 36.5236C255.8 44.6092 265.171 49.5059 274.202 54.245C274.767 54.5268 275.303 54.8074 275.838 55.1169C295.565 65.4681 311.545 75.1514 325.35 88.7818C325.96 89.3823 326.654 90.0438 327.402 90.7939C328.511 91.8753 329.787 93.1074 331.145 94.458L331.238 92.128C330.296 91.1973 329.407 90.3552 328.603 89.574C327.854 88.8527 327.161 88.1624 326.55 87.5907C312.578 73.8096 296.485 64.0642 276.618 53.6209C276.082 53.3403 275.517 53.0584 274.953 52.7479C266.062 48.1008 256.89 43.2985 250.861 35.5097C247.163 30.6949 245.467 26.2768 245.751 22.024C246.089 16.4479 247.744 11.7887 250.523 8.55726C253.544 5.04731 257.672 3.3966 262.817 3.71675C271.929 4.25254 280.023 8.63739 287.863 12.8969C295.675 17.1264 303.713 21.4802 312.988 22.2818C320.827 22.9397 328.117 22.1929 334.104 20.184L334.177 18.343C328.332 20.4151 321.04 21.2195 313.143 20.5592C304.241 19.8013 296.345 15.5108 288.702 11.3744C280.72 7.05169 272.457 2.57368 262.943 1.99307C252.137 1.30338 244.89 8.93794 244.086 21.8712Z" fill="#C8E2DE"/>
</g>
</g>
<path d="M204.065 126.98C206.213 126.98 208.045 126.228 209.559 124.722C211.074 123.215 211.829 121.216 211.829 118.725C211.829 116.708 211.048 114.909 209.487 113.329C207.922 111.75 206.117 110.961 204.065 110.961H189.538C188.256 110.961 187.216 112 187.216 113.283V118.576C187.216 119.056 187.606 119.446 188.087 119.446H188.104C188.585 119.446 188.975 119.056 188.975 118.576V113.591C188.975 113.11 189.365 112.72 189.846 112.72H204.065C205.63 112.72 207.02 113.335 208.242 114.563C209.461 115.793 210.074 117.181 210.074 118.725C210.074 120.794 209.491 122.393 208.327 123.522C207.163 124.654 205.743 125.22 204.066 125.22H186.024C184.742 125.22 183.702 126.259 183.702 127.542V143.493C183.702 143.974 184.092 144.364 184.573 144.364H184.59C185.071 144.364 185.461 143.974 185.461 143.493V127.851C185.461 127.37 185.851 126.98 186.332 126.98H204.065Z" fill="white"/>
<path d="M204.066 123.464C206.898 123.464 208.314 121.885 208.314 118.727C208.314 117.59 207.894 116.597 207.058 115.749C206.219 114.901 205.22 114.48 204.066 114.48H193.057C191.774 114.48 190.735 115.52 190.735 116.803V118.578C190.735 119.059 191.125 119.449 191.605 119.449H191.62C192.1 119.449 192.491 119.059 192.491 118.578V117.107C192.491 116.627 192.881 116.236 193.361 116.236H204.066C204.765 116.236 205.357 116.475 205.836 116.945C206.315 117.418 206.556 118.013 206.556 118.727C206.556 119.836 206.338 120.608 205.897 121.049C205.458 121.487 204.846 121.708 204.065 121.708H182.507C181.224 121.708 180.185 122.747 180.185 124.03V143.496C180.185 143.977 180.575 144.367 181.055 144.367H181.073C181.553 144.367 181.944 143.977 181.944 143.496V124.334C181.944 123.853 182.334 123.463 182.814 123.463H204.066V123.464Z" fill="white"/>
<path d="M204.065 130.496C206.068 130.496 207.928 129.996 209.644 128.995C211.363 127.994 212.741 126.586 213.783 124.772C214.824 122.955 215.347 120.941 215.347 118.726C215.347 116.772 214.83 114.926 213.797 113.185C212.761 111.444 211.374 110.051 209.632 109.009C207.89 107.966 206.036 107.447 204.065 107.447H186.024C184.742 107.447 183.702 108.487 183.702 109.769V118.577C183.702 119.058 184.092 119.448 184.573 119.448H184.59C185.071 119.448 185.461 119.058 185.461 118.577V110.075C185.461 109.594 185.851 109.204 186.332 109.204H204.066C206.588 109.204 208.806 110.165 210.722 112.086C212.634 114.008 213.59 116.222 213.59 118.727C213.59 120.665 213.145 122.407 212.26 123.954C211.372 125.501 210.209 126.685 208.769 127.506C207.326 128.328 205.759 128.74 204.067 128.74H189.54C188.257 128.74 187.218 129.779 187.218 131.062V143.495C187.218 143.976 187.608 144.366 188.089 144.366H188.106C188.587 144.366 188.977 143.976 188.977 143.495V131.367C188.977 130.886 189.367 130.496 189.848 130.496H204.065Z" fill="white"/>
<path d="M216.836 111.425C215.484 109.146 213.669 107.327 211.391 105.968C209.113 104.607 206.669 103.928 204.066 103.928H182.507C181.224 103.928 180.185 104.967 180.185 106.25V118.575C180.185 119.056 180.575 119.446 181.055 119.446H181.073C181.553 119.446 181.944 119.056 181.944 118.575V106.558C181.944 106.077 182.334 105.687 182.814 105.687H204.066C206.362 105.687 208.515 106.284 210.523 107.48C212.535 108.676 214.134 110.281 215.321 112.292C216.511 114.3 217.106 116.446 217.106 118.723C217.106 120.631 216.755 122.424 216.056 124.107C215.356 125.794 214.416 127.225 213.234 128.406C212.053 129.587 210.666 130.522 209.072 131.215C207.476 131.906 205.807 132.252 204.066 132.252H193.057C191.774 132.252 190.735 133.291 190.735 134.574V143.492C190.735 143.973 191.125 144.363 191.605 144.363H191.62C192.1 144.363 192.491 143.973 192.491 143.492V134.882C192.491 134.401 192.881 134.011 193.361 134.011H204.066C206.051 134.011 207.94 133.657 209.731 132.949C211.522 132.24 213.092 131.242 214.445 129.956C215.794 128.671 216.868 127.057 217.666 125.109C218.465 123.165 218.862 121.037 218.862 118.724C218.862 116.138 218.186 113.703 216.836 111.425Z" fill="white"/>
<path d="M351.739 208.33H236.621V323.429H351.739V208.33Z" fill="#44A798"/>
<path d="M236.621 304.244H351.739" stroke="white" stroke-width="3" stroke-miterlimit="10" stroke-linecap="round" stroke-linejoin="round"/>
<path d="M236.621 285.059H351.739" stroke="white" stroke-width="3" stroke-miterlimit="10" stroke-linecap="round" stroke-linejoin="round"/>
<path d="M236.621 265.881H351.739" stroke="white" stroke-width="3" stroke-miterlimit="10" stroke-linecap="round" stroke-linejoin="round"/>
<path d="M236.621 246.695H351.739" stroke="white" stroke-width="3" stroke-miterlimit="10" stroke-linecap="round" stroke-linejoin="round"/>
<path d="M236.621 227.51H351.739" stroke="white" stroke-width="3" stroke-miterlimit="10" stroke-linecap="round" stroke-linejoin="round"/>
<path d="M332.551 208.33V323.421" stroke="white" stroke-width="3" stroke-miterlimit="10" stroke-linecap="round" stroke-linejoin="round"/>
<path d="M313.369 208.33V323.421" stroke="white" stroke-width="3" stroke-miterlimit="10" stroke-linecap="round" stroke-linejoin="round"/>
<path d="M294.181 208.33V323.421" stroke="white" stroke-width="3" stroke-miterlimit="10" stroke-linecap="round" stroke-linejoin="round"/>
<path d="M274.999 208.33V323.421" stroke="white" stroke-width="3" stroke-miterlimit="10" stroke-linecap="round" stroke-linejoin="round"/>
<path d="M255.81 208.33V323.421" stroke="white" stroke-width="3" stroke-miterlimit="10" stroke-linecap="round" stroke-linejoin="round"/>
<path d="M255.81 294.795C261.188 294.795 265.548 290.436 265.548 285.059C265.548 279.681 261.188 275.322 255.81 275.322C250.432 275.322 246.072 279.681 246.072 285.059C246.072 290.436 250.432 294.795 255.81 294.795Z" fill="#FFEEA7"/>
<path d="M323.107 275.617C328.485 275.617 332.845 271.258 332.845 265.881C332.845 260.504 328.485 256.145 323.107 256.145C317.729 256.145 313.369 260.504 313.369 265.881C313.369 271.258 317.729 275.617 323.107 275.617Z" fill="white"/>
<path d="M274.999 237.244C280.377 237.244 284.737 232.885 284.737 227.508C284.737 222.131 280.377 217.771 274.999 217.771C269.621 217.771 265.261 222.131 265.261 227.508C265.261 232.885 269.621 237.244 274.999 237.244Z" fill="#333333"/>
</svg>
